<svg width="852" height="588" viewBox="0 0 852 588" fill="none" xmlns="http://www.w3.org/2000/svg">
<g clip-path="url(#clip0)">
<path opacity="0.1" d="M481.916 80.0534C427.304 80.1265 374.738 64.6503 324.458 47.4578C274.178 30.2652 224.286 11.0131 170.689 2.85509C136.22 -2.38885 97.0233 -1.90681 70.0788 17.1335C44.1427 35.4508 36.6321 65.7677 33.0084 93.7768C30.2832 114.847 29.0266 136.963 39.2331 156.237C46.3198 169.617 58.4478 180.645 66.9957 193.397C96.8333 237.759 78.8898 294.427 49.8925 339.818C36.2961 361.115 20.369 381.529 10.0896 404.045C-0.189945 426.562 -4.40549 452.095 6.07857 474.32C16.4677 496.347 39.9344 512.335 65.1181 523.254C116.26 545.471 175.803 550.233 233.747 552.066C362.011 556.134 490.523 547.837 618.691 539.54C666.122 536.473 713.764 533.384 760.215 524.495C786.005 519.565 812.562 512.247 830.849 496.209C854.06 475.846 858.809 442.601 841.918 418.704C813.593 378.622 738.904 371.063 718.593 327.694C707.393 303.819 717.051 276.438 731.276 253.425C761.786 204.045 814.301 159.815 815.185 104.586C815.792 66.6587 788.482 29.6591 747.693 13.175C704.938 -4.09057 646.644 0.34998 616.689 32.5293C585.887 65.6801 530.136 80.0023 481.916 80.0534Z" fill="#6C63FF"/>
<path d="M725.139 471.341C725.139 471.341 716.16 465.417 707.261 469.632C707.261 469.632 710.001 474.905 721.267 474.408L725.139 471.341Z" fill="#6C63FF"/>
<path d="M726.279 471.655C726.279 471.655 729.011 482.055 722.158 489.132C722.158 489.132 718.038 484.845 722.158 474.342L726.279 471.655Z" fill="#6C63FF"/>
<path d="M737.442 461.671C737.442 461.671 736.778 452.826 716.796 455.762C716.796 455.762 716.701 461.466 723.715 464.169C730.728 466.871 733.943 464.592 737.442 461.671Z" fill="#6C63FF"/>
<path d="M738.699 461.612C738.699 461.612 747.145 464.322 739.612 483.056C739.612 483.056 734.038 481.814 733.037 474.357C732.036 466.9 735.002 464.329 738.699 461.612Z" fill="#6C63FF"/>
<path d="M749.98 449.065C749.98 449.065 751.127 434.509 730.706 435.999C730.706 435.999 729.245 449.145 746.378 452.563L749.98 449.065Z" fill="#6C63FF"/>
<path d="M763.474 432.632C763.474 432.632 760.675 416.133 740.263 421.049C740.263 421.049 740.189 435.312 760.142 436.561L763.474 432.632Z" fill="#6C63FF"/>
<path d="M773.337 415.644C773.337 415.644 768.646 399.576 748.423 404.382C748.423 404.382 753.238 418.836 771.992 418.609L773.337 415.644Z" fill="#6C63FF"/>
<path d="M782.703 399.05C782.703 399.05 778.122 382.376 758.593 387.365C758.593 387.365 765.11 403.206 781.41 401.869L782.703 399.05Z" fill="#6C63FF"/>
<path d="M788.738 383.289C788.738 383.289 785.216 362.898 767.01 367.411C767.01 367.411 772.299 385.962 787.401 386.262L788.738 383.289Z" fill="#6C63FF"/>
<path d="M794.4 364.249C794.4 364.249 790.17 343.697 771.751 349.642C771.751 349.642 778.969 369.069 793.092 367.061L794.4 364.249Z" fill="#6C63FF"/>
<path d="M797.877 346.531C797.877 346.531 791.163 325.971 776.924 326.526C776.924 326.526 783.784 348.24 796.686 350.628L797.877 346.531Z" fill="#6C63FF"/>
<path d="M800.128 329.236C800.128 329.236 792.822 304.492 781.234 306.398C781.234 306.398 786.29 325.314 799.718 333.092L800.128 329.236Z" fill="#6C63FF"/>
<path d="M801.399 308.603C801.399 308.603 794.546 287.986 783.134 287.16C783.134 287.16 787.795 307.449 801.172 313.964L801.399 308.603Z" fill="#6C63FF"/>
<path d="M802.78 289.351C802.78 289.351 794.239 268.712 786.707 268.244C786.707 268.244 790.418 288.57 802.049 292.74L802.78 289.351Z" fill="#6C63FF"/>
<path d="M803.722 271.443C803.722 271.443 798.469 249.029 790.922 247.166C790.922 247.166 791.952 265.505 802.962 273.123L803.722 271.443Z" fill="#6C63FF"/>
<path d="M806.571 247.984C806.571 247.984 801.048 230.112 794.933 227.388C794.933 227.388 796.138 248.459 805.161 252.352L806.571 247.984Z" fill="#6C63FF"/>
<path d="M808.931 232.647L810.042 201.139C810.042 201.139 798.608 224.89 808.106 238.175L808.931 232.647Z" fill="#6C63FF"/>
<path d="M817.757 201.307C817.757 201.307 825.991 178.301 827.985 177.016C827.985 177.016 811.839 191.944 813.417 211.145L817.757 201.307Z" fill="#6C63FF"/>
<path d="M750.535 448.955C750.535 448.955 765.015 447.064 764.584 467.521C764.584 467.521 751.499 469.654 747.225 452.731L750.535 448.955Z" fill="#6C63FF"/>
<path d="M764.16 432.077C764.16 432.077 780.891 432.026 779.503 452.965C779.503 452.965 765.453 455.477 760.821 436.035L764.16 432.077Z" fill="#6C63FF"/>
<path d="M773.497 416.995C773.497 416.995 788.686 409.874 798.403 428.257C798.403 428.257 784.376 434.188 772.153 419.968L773.497 416.995Z" fill="#6C63FF"/>
<path d="M783.039 399.204C783.039 399.204 798.593 391.63 807.726 409.582C807.726 409.582 791.521 415.162 781.753 402.045L783.039 399.204Z" fill="#6C63FF"/>
<path d="M788.54 383.735C788.54 383.735 803.51 369.442 815.456 383.895C815.456 383.895 800.164 395.661 787.854 386.919L788.54 383.735Z" fill="#6C63FF"/>
<path d="M793.552 363.76C793.552 363.76 808.61 349.153 820.46 364.432C820.46 364.432 803.561 376.431 793.012 366.827L793.552 363.76Z" fill="#6C63FF"/>
<path d="M796.365 345.946C796.365 345.946 807.967 327.688 821.629 331.763C821.629 331.763 809.589 351.095 796.496 350.234L796.365 345.946Z" fill="#6C63FF"/>
<path d="M799.784 329.119C799.784 329.119 811.474 306.127 822.535 310.13C822.535 310.13 814.104 327.804 799.485 332.997L799.784 329.119Z" fill="#6C63FF"/>
<path d="M800.595 307.406C800.595 307.406 812.613 289.307 823.872 291.52C823.872 291.52 814.045 309.874 799.426 312.642L800.595 307.406Z" fill="#6C63FF"/>
<path d="M801.53 288.95C801.53 288.95 810.845 268.638 818.414 268.5C818.414 268.5 813.943 288.665 802.159 292.397L801.53 288.95Z" fill="#6C63FF"/>
<path d="M803.357 271.005C803.357 271.005 813.709 250.438 821.49 250.394C821.49 250.394 816.193 267.981 803.7 272.809L803.357 271.005Z" fill="#6C63FF"/>
<path d="M804.913 249.27C804.913 249.27 812.657 232.252 819.072 230.324C819.072 230.324 815.2 251.066 805.768 253.783L804.913 249.27Z" fill="#6C63FF"/>
<path d="M809.852 232.026L827.16 205.667C827.16 205.667 822.725 231.668 807.324 237.073L809.852 232.026Z" fill="#6C63FF"/>
<path d="M821.731 203.433C821.731 203.433 841.845 189.556 842.575 187.314C842.575 187.314 832.347 206.748 813.351 210.181L821.731 203.433Z" fill="#6C63FF"/>
<path d="M822.937 197.188C822.937 197.188 846.031 174.993 851.927 175.014C851.927 175.014 832.88 175.884 822.382 196.005L822.937 197.188Z" fill="#6C63FF"/>
<path d="M805.139 252.563L805.98 252.673C810.319 218.719 816.646 198.627 823.792 196.166L823.514 195.362C815.938 197.991 809.567 217.777 805.139 252.563Z" fill="#444053"/>
<path d="M798.754 333.764L800.025 333.866C800.296 330.697 800.5 327.454 800.639 324.218C801.852 296.114 803.729 270.304 806.199 250.957L805.468 250.044C802.991 269.435 800.581 296.019 799.368 324.167C799.229 327.381 799.024 330.609 798.754 333.764Z" fill="#444053"/>
<path d="M701.439 487.54C701.658 487.445 724.036 477.454 747.262 453.63C760.869 439.676 772.176 423.653 780.76 406.157C791.499 384.297 798.045 357.435 800.237 331.339L798.915 331.96C793.983 390.534 767.309 430.558 746.1 452.359C723.101 475.971 700.971 485.86 700.752 485.955L701.439 487.54Z" fill="#444053"/>
<path d="M759.382 62.248H57.3665C55.7078 62.248 54.1171 62.9067 52.9443 64.0791C51.7714 65.2516 51.1126 66.8417 51.1126 68.4998V86.7148H765.636V68.4998C765.636 66.8417 764.977 65.2516 763.804 64.0791C762.632 62.9067 761.041 62.248 759.382 62.248Z" fill="#3F3D56"/>
<path d="M51.1126 86.7148V496.618C51.1126 499.962 52.4411 503.168 54.806 505.532C57.1708 507.896 60.3782 509.224 63.7227 509.224H753.026C756.37 509.224 759.578 507.896 761.943 505.532C764.308 503.168 765.636 499.962 765.636 496.618V86.7148H51.1126Z" fill="white"/>
<path opacity="0.8" d="M62.4295 77.2202C64.0435 77.2202 65.3519 75.9123 65.3519 74.2988C65.3519 72.6854 64.0435 71.3774 62.4295 71.3774C60.8155 71.3774 59.5071 72.6854 59.5071 74.2988C59.5071 75.9123 60.8155 77.2202 62.4295 77.2202Z" fill="#FA5959"/>
<path opacity="0.8" d="M70.4661 77.2202C72.0801 77.2202 73.3885 75.9123 73.3885 74.2988C73.3885 72.6854 72.0801 71.3774 70.4661 71.3774C68.8521 71.3774 67.5437 72.6854 67.5437 74.2988C67.5437 75.9123 68.8521 77.2202 70.4661 77.2202Z" fill="#FED253"/>
<path opacity="0.8" d="M78.5026 77.2202C80.1166 77.2202 81.425 75.9123 81.425 74.2988C81.425 72.6854 80.1166 71.3774 78.5026 71.3774C76.8886 71.3774 75.5802 72.6854 75.5802 74.2988C75.5802 75.9123 76.8886 77.2202 78.5026 77.2202Z" fill="#8CCF4D"/>
<path opacity="0.05" d="M691.78 155.061H117.531V407.486H691.78V155.061Z" fill="black"/>
<path d="M687.397 156.975H121.915V403.834H687.397V156.975Z" fill="#3F3D56"/>
<path d="M276.071 220.508C264.944 220.508 254.068 223.806 244.816 229.986C235.565 236.165 228.355 244.948 224.097 255.224C219.839 265.5 218.725 276.808 220.896 287.717C223.066 298.626 228.424 308.646 236.292 316.511C244.159 324.376 254.183 329.732 265.096 331.902C276.008 334.072 287.319 332.958 297.599 328.702C307.878 324.445 316.664 317.237 322.846 307.989C329.027 298.741 332.327 287.868 332.327 276.745C332.327 269.36 330.871 262.047 328.044 255.224C325.217 248.401 321.073 242.202 315.85 236.98C310.626 231.758 304.424 227.615 297.599 224.789C290.774 221.963 283.458 220.508 276.071 220.508ZM286.16 278.097V304.725H266.273V278.097C263.521 276.014 261.493 273.12 260.475 269.823C259.457 266.526 259.5 262.993 260.599 259.722C261.698 256.451 263.796 253.608 266.598 251.594C269.401 249.579 272.765 248.496 276.217 248.496C279.668 248.496 283.033 249.579 285.835 251.594C288.637 253.608 290.736 256.451 291.835 259.722C292.933 262.993 292.977 266.526 291.959 269.823C290.94 273.12 288.912 276.014 286.16 278.097Z" fill="#6C63FF"/>
<path opacity="0.05" d="M276.071 220.508C264.944 220.508 254.068 223.806 244.816 229.986C235.565 236.165 228.355 244.948 224.097 255.224C219.839 265.5 218.725 276.808 220.896 287.717C223.066 298.626 228.424 308.646 236.292 316.511C244.159 324.376 254.183 329.732 265.096 331.902C276.008 334.072 287.319 332.958 297.599 328.702C307.878 324.445 316.664 317.237 322.846 307.989C329.027 298.741 332.327 287.868 332.327 276.745C332.327 269.36 330.871 262.047 328.044 255.224C325.217 248.401 321.073 242.202 315.85 236.98C310.626 231.758 304.424 227.615 297.599 224.789C290.774 221.963 283.458 220.508 276.071 220.508ZM286.16 278.097V304.725H266.273V278.097C263.521 276.014 261.493 273.12 260.475 269.823C259.457 266.526 259.5 262.993 260.599 259.722C261.698 256.451 263.796 253.608 266.598 251.594C269.401 249.579 272.765 248.496 276.217 248.496C279.668 248.496 283.033 249.579 285.835 251.594C288.637 253.608 290.736 256.451 291.835 259.722C292.933 262.993 292.977 266.526 291.959 269.823C290.94 273.12 288.912 276.014 286.16 278.097Z" fill="black"/>
<path d="M276.071 204.44C261.765 204.44 247.781 208.681 235.887 216.626C223.992 224.571 214.722 235.863 209.247 249.075C203.773 262.287 202.34 276.826 205.131 290.851C207.922 304.877 214.811 317.761 224.926 327.873C235.042 337.985 247.929 344.871 261.96 347.661C275.99 350.451 290.533 349.019 303.75 343.546C316.966 338.074 328.262 328.806 336.21 316.916C344.158 305.025 348.4 291.046 348.4 276.745C348.4 257.569 340.779 239.178 327.215 225.618C313.651 212.058 295.253 204.44 276.071 204.44ZM289.039 278.484V312.715H263.468V278.484C259.928 275.806 257.319 272.084 256.009 267.844C254.699 263.604 254.755 259.06 256.168 254.853C257.581 250.647 260.279 246.99 263.883 244.399C267.487 241.808 271.814 240.414 276.253 240.414C280.692 240.414 285.019 241.808 288.623 244.399C292.227 246.99 294.926 250.647 296.339 254.853C297.752 259.06 297.807 263.604 296.497 267.844C295.187 272.084 292.578 275.806 289.039 278.484Z" fill="#6C63FF"/>
<path d="M612.145 267.258H378.354V292.09H612.145V267.258Z" fill="white"/>
<path d="M612.145 312.54H561.734V337.372H612.145V312.54Z" fill="#6C63FF"/>
<path d="M401.368 279.302H397.138L400.9 275.548C400.968 275.478 401.005 275.385 401.005 275.288C401.005 275.192 400.968 275.099 400.9 275.029C400.866 274.995 400.826 274.968 400.781 274.949C400.737 274.931 400.689 274.921 400.641 274.921C400.593 274.921 400.545 274.931 400.5 274.949C400.456 274.968 400.416 274.995 400.382 275.029L396.619 278.79V274.554C396.619 274.458 396.581 274.365 396.512 274.296C396.444 274.228 396.351 274.189 396.254 274.189C396.157 274.191 396.066 274.23 395.997 274.298C395.929 274.366 395.89 274.458 395.888 274.554V278.79L392.133 275.007C392.099 274.973 392.059 274.946 392.014 274.927C391.97 274.909 391.922 274.899 391.874 274.899C391.826 274.899 391.778 274.909 391.733 274.927C391.689 274.946 391.648 274.973 391.614 275.007C391.547 275.077 391.509 275.17 391.509 275.266C391.509 275.363 391.547 275.456 391.614 275.526L395.377 279.28H391.14C391.043 279.282 390.951 279.321 390.883 279.389C390.815 279.457 390.776 279.549 390.774 279.645C390.774 279.742 390.813 279.835 390.881 279.903C390.95 279.972 391.043 280.01 391.14 280.01H395.377L391.614 283.771C391.547 283.841 391.509 283.934 391.509 284.031C391.509 284.127 391.547 284.22 391.614 284.29C391.685 284.356 391.778 284.392 391.874 284.392C391.97 284.392 392.063 284.356 392.133 284.29L395.888 280.529V284.757C395.888 284.854 395.927 284.947 395.995 285.016C396.064 285.084 396.157 285.123 396.254 285.123C396.351 285.123 396.444 285.084 396.512 285.016C396.581 284.947 396.619 284.854 396.619 284.757V280.529L400.382 284.29C400.452 284.356 400.545 284.392 400.641 284.392C400.737 284.392 400.83 284.356 400.9 284.29C400.968 284.22 401.005 284.127 401.005 284.031C401.005 283.934 400.968 283.841 400.9 283.771L397.138 280.01H401.368C401.465 280.01 401.558 279.972 401.626 279.903C401.695 279.835 401.733 279.742 401.733 279.645C401.728 279.552 401.687 279.465 401.619 279.401C401.551 279.337 401.461 279.301 401.368 279.302Z" fill="#6C63FF"/>
<path d="M416.71 279.302H412.48L416.243 275.548C416.31 275.478 416.348 275.385 416.348 275.288C416.348 275.192 416.31 275.099 416.243 275.029C416.209 274.995 416.169 274.968 416.124 274.949C416.079 274.931 416.032 274.921 415.983 274.921C415.935 274.921 415.888 274.931 415.843 274.949C415.799 274.968 415.758 274.995 415.724 275.029L411.962 278.79V274.554C411.962 274.458 411.923 274.365 411.855 274.296C411.786 274.228 411.693 274.189 411.596 274.189C411.5 274.191 411.408 274.23 411.34 274.298C411.272 274.366 411.233 274.458 411.231 274.554V278.79L407.476 275.007C407.442 274.973 407.401 274.946 407.357 274.927C407.312 274.909 407.265 274.899 407.216 274.899C407.168 274.899 407.12 274.909 407.076 274.927C407.031 274.946 406.991 274.973 406.957 275.007C406.89 275.077 406.852 275.17 406.852 275.266C406.852 275.363 406.89 275.456 406.957 275.526L410.72 279.28H406.482C406.386 279.282 406.294 279.321 406.226 279.389C406.158 279.457 406.119 279.549 406.117 279.645C406.117 279.742 406.155 279.835 406.224 279.903C406.292 279.972 406.385 280.01 406.482 280.01H410.72L406.957 283.771C406.89 283.841 406.852 283.934 406.852 284.031C406.852 284.127 406.89 284.22 406.957 284.29C407.027 284.356 407.12 284.392 407.216 284.392C407.313 284.392 407.405 284.356 407.476 284.29L411.231 280.529V284.757C411.231 284.854 411.269 284.947 411.338 285.016C411.406 285.084 411.499 285.123 411.596 285.123C411.693 285.123 411.786 285.084 411.855 285.016C411.923 284.947 411.962 284.854 411.962 284.757V280.529L415.724 284.29C415.795 284.356 415.887 284.392 415.983 284.392C416.08 284.392 416.173 284.356 416.243 284.29C416.31 284.22 416.348 284.127 416.348 284.031C416.348 283.934 416.31 283.841 416.243 283.771L412.48 280.01H416.71C416.807 280.01 416.9 279.972 416.969 279.903C417.037 279.835 417.076 279.742 417.076 279.645C417.07 279.552 417.029 279.465 416.961 279.401C416.893 279.337 416.804 279.301 416.71 279.302Z" fill="#6C63FF"/>
<path d="M432.053 279.302H427.823L431.585 275.548C431.653 275.478 431.691 275.385 431.691 275.288C431.691 275.192 431.653 275.099 431.585 275.029C431.551 274.995 431.511 274.968 431.467 274.949C431.422 274.931 431.374 274.921 431.326 274.921C431.278 274.921 431.23 274.931 431.186 274.949C431.141 274.968 431.101 274.995 431.067 275.029L427.304 278.79V274.554C427.304 274.458 427.266 274.365 427.197 274.296C427.129 274.228 427.036 274.189 426.939 274.189C426.843 274.191 426.751 274.23 426.683 274.298C426.614 274.366 426.575 274.458 426.574 274.554V278.79L422.818 275.007C422.784 274.973 422.744 274.946 422.699 274.927C422.655 274.909 422.607 274.899 422.559 274.899C422.511 274.899 422.463 274.909 422.418 274.927C422.374 274.946 422.333 274.973 422.3 275.007C422.232 275.077 422.194 275.17 422.194 275.266C422.194 275.363 422.232 275.456 422.3 275.526L426.062 279.28H421.825C421.728 279.282 421.636 279.321 421.568 279.389C421.5 279.457 421.461 279.549 421.459 279.645C421.459 279.742 421.498 279.835 421.566 279.903C421.635 279.972 421.728 280.01 421.825 280.01H426.062L422.3 283.771C422.232 283.841 422.194 283.934 422.194 284.031C422.194 284.127 422.232 284.22 422.3 284.29C422.37 284.356 422.463 284.392 422.559 284.392C422.655 284.392 422.748 284.356 422.818 284.29L426.574 280.529V284.757C426.574 284.854 426.612 284.947 426.681 285.016C426.749 285.084 426.842 285.123 426.939 285.123C427.036 285.123 427.129 285.084 427.197 285.016C427.266 284.947 427.304 284.854 427.304 284.757V280.529L431.067 284.29C431.137 284.356 431.23 284.392 431.326 284.392C431.422 284.392 431.515 284.356 431.585 284.29C431.653 284.22 431.691 284.127 431.691 284.031C431.691 283.934 431.653 283.841 431.585 283.771L427.823 280.01H432.053C432.15 280.01 432.243 279.972 432.311 279.903C432.38 279.835 432.418 279.742 432.418 279.645C432.413 279.552 432.372 279.465 432.304 279.401C432.236 279.337 432.146 279.301 432.053 279.302Z" fill="#6C63FF"/>
<path d="M447.396 279.302H443.165L446.928 275.548C446.995 275.478 447.033 275.385 447.033 275.288C447.033 275.192 446.995 275.099 446.928 275.029C446.894 274.995 446.854 274.968 446.809 274.949C446.765 274.931 446.717 274.921 446.669 274.921C446.62 274.921 446.573 274.931 446.528 274.949C446.484 274.968 446.443 274.995 446.409 275.029L442.647 278.79V274.554C442.647 274.458 442.608 274.365 442.54 274.296C442.471 274.228 442.378 274.189 442.281 274.189C442.185 274.191 442.093 274.23 442.025 274.298C441.957 274.366 441.918 274.458 441.916 274.554V278.79L438.161 275.007C438.127 274.973 438.086 274.946 438.042 274.927C437.997 274.909 437.95 274.899 437.901 274.899C437.853 274.899 437.805 274.909 437.761 274.927C437.716 274.946 437.676 274.973 437.642 275.007C437.575 275.077 437.537 275.17 437.537 275.266C437.537 275.363 437.575 275.456 437.642 275.526L441.405 279.28H437.167C437.071 279.282 436.979 279.321 436.911 279.389C436.843 279.457 436.804 279.549 436.802 279.645C436.802 279.742 436.84 279.835 436.909 279.903C436.977 279.972 437.07 280.01 437.167 280.01H441.405L437.642 283.771C437.575 283.841 437.537 283.934 437.537 284.031C437.537 284.127 437.575 284.22 437.642 284.29C437.712 284.356 437.805 284.392 437.901 284.392C437.998 284.392 438.09 284.356 438.161 284.29L441.916 280.529V284.757C441.916 284.854 441.955 284.947 442.023 285.016C442.092 285.084 442.184 285.123 442.281 285.123C442.378 285.123 442.471 285.084 442.54 285.016C442.608 284.947 442.647 284.854 442.647 284.757V280.529L446.409 284.29C446.48 284.356 446.572 284.392 446.669 284.392C446.765 284.392 446.858 284.356 446.928 284.29C446.995 284.22 447.033 284.127 447.033 284.031C447.033 283.934 446.995 283.841 446.928 283.771L443.165 280.01H447.396C447.492 280.01 447.585 279.972 447.654 279.903C447.722 279.835 447.761 279.742 447.761 279.645C447.755 279.552 447.714 279.465 447.646 279.401C447.578 279.337 447.489 279.301 447.396 279.302Z" fill="#6C63FF"/>
<path d="M462.738 279.302H458.508L462.271 275.548C462.338 275.478 462.376 275.385 462.376 275.288C462.376 275.192 462.338 275.099 462.271 275.029C462.237 274.995 462.196 274.968 462.152 274.949C462.107 274.931 462.059 274.921 462.011 274.921C461.963 274.921 461.915 274.931 461.871 274.949C461.826 274.968 461.786 274.995 461.752 275.029L457.989 278.79V274.554C457.989 274.458 457.951 274.365 457.882 274.296C457.814 274.228 457.721 274.189 457.624 274.189C457.528 274.191 457.436 274.23 457.368 274.298C457.3 274.366 457.26 274.458 457.259 274.554V278.79L453.503 275.007C453.469 274.973 453.429 274.946 453.384 274.927C453.34 274.909 453.292 274.899 453.244 274.899C453.196 274.899 453.148 274.909 453.103 274.927C453.059 274.946 453.019 274.973 452.985 275.007C452.917 275.077 452.879 275.17 452.879 275.266C452.879 275.363 452.917 275.456 452.985 275.526L456.747 279.28H452.51C452.413 279.282 452.322 279.321 452.253 279.389C452.185 279.457 452.146 279.549 452.144 279.645C452.144 279.742 452.183 279.835 452.251 279.903C452.32 279.972 452.413 280.01 452.51 280.01H456.747L452.985 283.771C452.917 283.841 452.879 283.934 452.879 284.031C452.879 284.127 452.917 284.22 452.985 284.29C453.055 284.356 453.148 284.392 453.244 284.392C453.34 284.392 453.433 284.356 453.503 284.29L457.259 280.529V284.757C457.259 284.854 457.297 284.947 457.366 285.016C457.434 285.084 457.527 285.123 457.624 285.123C457.721 285.123 457.814 285.084 457.882 285.016C457.951 284.947 457.989 284.854 457.989 284.757V280.529L461.752 284.29C461.822 284.356 461.915 284.392 462.011 284.392C462.107 284.392 462.2 284.356 462.271 284.29C462.338 284.22 462.376 284.127 462.376 284.031C462.376 283.934 462.338 283.841 462.271 283.771L458.508 280.01H462.738C462.835 280.01 462.928 279.972 462.996 279.903C463.065 279.835 463.103 279.742 463.103 279.645C463.098 279.552 463.057 279.465 462.989 279.401C462.921 279.337 462.831 279.301 462.738 279.302Z" fill="#6C63FF"/>
<path d="M478.081 279.302H473.85L477.613 275.548C477.68 275.478 477.718 275.385 477.718 275.288C477.718 275.192 477.68 275.099 477.613 275.029C477.579 274.995 477.539 274.968 477.494 274.949C477.45 274.931 477.402 274.921 477.354 274.921C477.305 274.921 477.258 274.931 477.213 274.949C477.169 274.968 477.128 274.995 477.094 275.029L473.332 278.79V274.554C473.332 274.458 473.293 274.365 473.225 274.296C473.156 274.228 473.063 274.189 472.966 274.189C472.87 274.191 472.778 274.23 472.71 274.298C472.642 274.366 472.603 274.458 472.601 274.554V278.79L468.846 275.007C468.812 274.973 468.771 274.946 468.727 274.927C468.682 274.909 468.635 274.899 468.586 274.899C468.538 274.899 468.49 274.909 468.446 274.927C468.401 274.946 468.361 274.973 468.327 275.007C468.26 275.077 468.222 275.17 468.222 275.266C468.222 275.363 468.26 275.456 468.327 275.526L472.09 279.28H467.852C467.756 279.282 467.664 279.321 467.596 279.389C467.528 279.457 467.489 279.549 467.487 279.645C467.487 279.742 467.525 279.835 467.594 279.903C467.662 279.972 467.755 280.01 467.852 280.01H472.09L468.327 283.771C468.26 283.841 468.222 283.934 468.222 284.031C468.222 284.127 468.26 284.22 468.327 284.29C468.397 284.356 468.49 284.392 468.586 284.392C468.683 284.392 468.775 284.356 468.846 284.29L472.601 280.529V284.757C472.601 284.854 472.64 284.947 472.708 285.016C472.777 285.084 472.87 285.123 472.966 285.123C473.063 285.123 473.156 285.084 473.225 285.016C473.293 284.947 473.332 284.854 473.332 284.757V280.529L477.094 284.29C477.165 284.356 477.257 284.392 477.354 284.392C477.45 284.392 477.543 284.356 477.613 284.29C477.68 284.22 477.718 284.127 477.718 284.031C477.718 283.934 477.68 283.841 477.613 283.771L473.85 280.01H478.081C478.177 280.01 478.27 279.972 478.339 279.903C478.407 279.835 478.446 279.742 478.446 279.645C478.44 279.552 478.399 279.465 478.331 279.401C478.264 279.337 478.174 279.301 478.081 279.302Z" fill="#6C63FF"/>
<path d="M493.423 279.302H489.193L492.956 275.548C493.023 275.478 493.061 275.385 493.061 275.288C493.061 275.192 493.023 275.099 492.956 275.029C492.922 274.995 492.881 274.968 492.837 274.949C492.792 274.931 492.744 274.921 492.696 274.921C492.648 274.921 492.6 274.931 492.556 274.949C492.511 274.968 492.471 274.995 492.437 275.029L488.674 278.79V274.554C488.674 274.458 488.636 274.365 488.567 274.296C488.499 274.228 488.406 274.189 488.309 274.189C488.213 274.191 488.121 274.23 488.053 274.298C487.985 274.366 487.946 274.458 487.944 274.554V278.79L484.188 275.007C484.154 274.973 484.114 274.946 484.07 274.927C484.025 274.909 483.977 274.899 483.929 274.899C483.881 274.899 483.833 274.909 483.789 274.927C483.744 274.946 483.704 274.973 483.67 275.007C483.602 275.077 483.565 275.17 483.565 275.266C483.565 275.363 483.602 275.456 483.67 275.526L487.432 279.28H483.195C483.098 279.282 483.007 279.321 482.939 279.389C482.87 279.457 482.831 279.549 482.829 279.645C482.829 279.742 482.868 279.835 482.936 279.903C483.005 279.972 483.098 280.01 483.195 280.01H487.432L483.67 283.771C483.602 283.841 483.565 283.934 483.565 284.031C483.565 284.127 483.602 284.22 483.67 284.29C483.74 284.356 483.833 284.392 483.929 284.392C484.025 284.392 484.118 284.356 484.188 284.29L487.944 280.529V284.757C487.944 284.854 487.982 284.947 488.051 285.016C488.119 285.084 488.212 285.123 488.309 285.123C488.406 285.123 488.499 285.084 488.567 285.016C488.636 284.947 488.674 284.854 488.674 284.757V280.529L492.437 284.29C492.507 284.356 492.6 284.392 492.696 284.392C492.792 284.392 492.885 284.356 492.956 284.29C493.023 284.22 493.061 284.127 493.061 284.031C493.061 283.934 493.023 283.841 492.956 283.771L489.193 280.01H493.423C493.52 280.01 493.613 279.972 493.681 279.903C493.75 279.835 493.788 279.742 493.788 279.645C493.783 279.552 493.742 279.465 493.674 279.401C493.606 279.337 493.516 279.301 493.423 279.302Z" fill="#6C63FF"/>
<path d="M508.766 279.302H504.535L508.298 275.548C508.365 275.478 508.403 275.385 508.403 275.288C508.403 275.192 508.365 275.099 508.298 275.029C508.264 274.995 508.224 274.968 508.179 274.949C508.135 274.931 508.087 274.921 508.039 274.921C507.99 274.921 507.943 274.931 507.898 274.949C507.854 274.968 507.813 274.995 507.779 275.029L504.017 278.79V274.554C504.017 274.458 503.978 274.365 503.91 274.296C503.841 274.228 503.748 274.189 503.651 274.189C503.555 274.191 503.463 274.23 503.395 274.298C503.327 274.366 503.288 274.458 503.286 274.554V278.79L499.531 275.007C499.497 274.973 499.457 274.946 499.412 274.927C499.367 274.909 499.32 274.899 499.272 274.899C499.223 274.899 499.176 274.909 499.131 274.927C499.087 274.946 499.046 274.973 499.012 275.007C498.945 275.077 498.907 275.17 498.907 275.266C498.907 275.363 498.945 275.456 499.012 275.526L502.775 279.28H498.537C498.441 279.282 498.349 279.321 498.281 279.389C498.213 279.457 498.174 279.549 498.172 279.645C498.172 279.742 498.21 279.835 498.279 279.903C498.347 279.972 498.44 280.01 498.537 280.01H502.775L499.012 283.771C498.945 283.841 498.907 283.934 498.907 284.031C498.907 284.127 498.945 284.22 499.012 284.29C499.083 284.356 499.175 284.392 499.272 284.392C499.368 284.392 499.461 284.356 499.531 284.29L503.286 280.529V284.757C503.286 284.854 503.325 284.947 503.393 285.016C503.462 285.084 503.555 285.123 503.651 285.123C503.748 285.123 503.841 285.084 503.91 285.016C503.978 284.947 504.017 284.854 504.017 284.757V280.529L507.779 284.29C507.85 284.356 507.942 284.392 508.039 284.392C508.135 284.392 508.228 284.356 508.298 284.29C508.365 284.22 508.403 284.127 508.403 284.031C508.403 283.934 508.365 283.841 508.298 283.771L504.535 280.01H508.766C508.863 280.01 508.955 279.972 509.024 279.903C509.092 279.835 509.131 279.742 509.131 279.645C509.125 279.552 509.084 279.465 509.016 279.401C508.949 279.337 508.859 279.301 508.766 279.302Z" fill="#6C63FF"/>
<path d="M524.108 279.302H519.878L523.641 275.548C523.708 275.478 523.746 275.385 523.746 275.288C523.746 275.192 523.708 275.099 523.641 275.029C523.607 274.995 523.566 274.968 523.522 274.949C523.477 274.931 523.429 274.921 523.381 274.921C523.333 274.921 523.285 274.931 523.241 274.949C523.196 274.968 523.156 274.995 523.122 275.029L519.359 278.79V274.554C519.359 274.458 519.321 274.365 519.252 274.296C519.184 274.228 519.091 274.189 518.994 274.189C518.898 274.191 518.806 274.23 518.738 274.298C518.67 274.366 518.631 274.458 518.629 274.554V278.79L514.873 275.007C514.839 274.973 514.799 274.946 514.755 274.927C514.71 274.909 514.662 274.899 514.614 274.899C514.566 274.899 514.518 274.909 514.474 274.927C514.429 274.946 514.389 274.973 514.355 275.007C514.287 275.077 514.25 275.17 514.25 275.266C514.25 275.363 514.287 275.456 514.355 275.526L518.117 279.28H513.88C513.784 279.282 513.692 279.321 513.624 279.389C513.555 279.457 513.516 279.549 513.515 279.645C513.515 279.742 513.553 279.835 513.622 279.903C513.69 279.972 513.783 280.01 513.88 280.01H518.117L514.355 283.771C514.287 283.841 514.25 283.934 514.25 284.031C514.25 284.127 514.287 284.22 514.355 284.29C514.425 284.356 514.518 284.392 514.614 284.392C514.71 284.392 514.803 284.356 514.873 284.29L518.629 280.529V284.757C518.629 284.854 518.667 284.947 518.736 285.016C518.804 285.084 518.897 285.123 518.994 285.123C519.091 285.123 519.184 285.084 519.252 285.016C519.321 284.947 519.359 284.854 519.359 284.757V280.529L523.122 284.29C523.192 284.356 523.285 284.392 523.381 284.392C523.478 284.392 523.57 284.356 523.641 284.29C523.708 284.22 523.746 284.127 523.746 284.031C523.746 283.934 523.708 283.841 523.641 283.771L519.878 280.01H524.108C524.205 280.01 524.298 279.972 524.366 279.903C524.435 279.835 524.474 279.742 524.474 279.645C524.468 279.552 524.427 279.465 524.359 279.401C524.291 279.337 524.201 279.301 524.108 279.302Z" fill="#6C63FF"/>
<path d="M539.451 279.302H535.221L538.983 275.548C539.051 275.478 539.088 275.385 539.088 275.288C539.088 275.192 539.051 275.099 538.983 275.029C538.949 274.995 538.909 274.968 538.864 274.949C538.82 274.931 538.772 274.921 538.724 274.921C538.676 274.921 538.628 274.931 538.583 274.949C538.539 274.968 538.498 274.995 538.464 275.029L534.702 278.79V274.554C534.702 274.458 534.663 274.365 534.595 274.296C534.526 274.228 534.433 274.189 534.337 274.189C534.24 274.191 534.148 274.23 534.08 274.298C534.012 274.366 533.973 274.458 533.971 274.554V278.79L530.216 275.007C530.182 274.973 530.142 274.946 530.097 274.927C530.053 274.909 530.005 274.899 529.957 274.899C529.908 274.899 529.861 274.909 529.816 274.927C529.772 274.946 529.731 274.973 529.697 275.007C529.63 275.077 529.592 275.17 529.592 275.266C529.592 275.363 529.63 275.456 529.697 275.526L533.46 279.28H529.222C529.126 279.282 529.034 279.321 528.966 279.389C528.898 279.457 528.859 279.549 528.857 279.645C528.857 279.742 528.896 279.835 528.964 279.903C529.033 279.972 529.125 280.01 529.222 280.01H533.46L529.697 283.771C529.63 283.841 529.592 283.934 529.592 284.031C529.592 284.127 529.63 284.22 529.697 284.29C529.768 284.356 529.86 284.392 529.957 284.392C530.053 284.392 530.146 284.356 530.216 284.29L533.971 280.529V284.757C533.971 284.854 534.01 284.947 534.078 285.016C534.147 285.084 534.24 285.123 534.337 285.123C534.433 285.123 534.526 285.084 534.595 285.016C534.663 284.947 534.702 284.854 534.702 284.757V280.529L538.464 284.29C538.535 284.356 538.627 284.392 538.724 284.392C538.82 284.392 538.913 284.356 538.983 284.29C539.051 284.22 539.088 284.127 539.088 284.031C539.088 283.934 539.051 283.841 538.983 283.771L535.221 280.01H539.451C539.548 280.01 539.641 279.972 539.709 279.903C539.778 279.835 539.816 279.742 539.816 279.645C539.81 279.552 539.769 279.465 539.702 279.401C539.634 279.337 539.544 279.301 539.451 279.302Z" fill="#6C63FF"/>
<path d="M554.793 279.302H550.563L554.326 275.548C554.393 275.478 554.431 275.385 554.431 275.288C554.431 275.192 554.393 275.099 554.326 275.029C554.292 274.995 554.251 274.968 554.207 274.949C554.162 274.931 554.114 274.921 554.066 274.921C554.018 274.921 553.97 274.931 553.926 274.949C553.881 274.968 553.841 274.995 553.807 275.029L550.044 278.79V274.554C550.044 274.458 550.006 274.365 549.937 274.296C549.869 274.228 549.776 274.189 549.679 274.189C549.583 274.191 549.491 274.23 549.423 274.298C549.355 274.366 549.316 274.458 549.314 274.554V278.79L545.559 275.007C545.525 274.973 545.484 274.946 545.44 274.927C545.395 274.909 545.347 274.899 545.299 274.899C545.251 274.899 545.203 274.909 545.159 274.927C545.114 274.946 545.074 274.973 545.04 275.007C544.972 275.077 544.935 275.17 544.935 275.266C544.935 275.363 544.972 275.456 545.04 275.526L548.802 279.28H544.565C544.469 279.282 544.377 279.321 544.309 279.389C544.241 279.457 544.202 279.549 544.2 279.645C544.2 279.742 544.238 279.835 544.307 279.903C544.375 279.972 544.468 280.01 544.565 280.01H548.802L545.04 283.771C544.972 283.841 544.935 283.934 544.935 284.031C544.935 284.127 544.972 284.22 545.04 284.29C545.11 284.356 545.203 284.392 545.299 284.392C545.395 284.392 545.488 284.356 545.559 284.29L549.314 280.529V284.757C549.314 284.854 549.352 284.947 549.421 285.016C549.489 285.084 549.582 285.123 549.679 285.123C549.776 285.123 549.869 285.084 549.937 285.016C550.006 284.947 550.044 284.854 550.044 284.757V280.529L553.807 284.29C553.877 284.356 553.97 284.392 554.066 284.392C554.163 284.392 554.255 284.356 554.326 284.29C554.393 284.22 554.431 284.127 554.431 284.031C554.431 283.934 554.393 283.841 554.326 283.771L550.563 280.01H554.793C554.89 280.01 554.983 279.972 555.051 279.903C555.12 279.835 555.159 279.742 555.159 279.645C555.153 279.552 555.112 279.465 555.044 279.401C554.976 279.337 554.886 279.301 554.793 279.302Z" fill="#6C63FF"/>
<path d="M672.412 368.149C672.391 367.266 672.281 366.388 672.083 365.527C671.426 363.058 669.943 360.071 667.502 359.326C664.983 358.555 662.55 357.527 660.24 356.259C659.802 348.43 661.599 340.418 659.641 332.829C658.911 330.054 657.705 327.395 657.384 324.554C656.982 321.019 657.946 317.251 656.536 313.993C655.426 311.423 652.986 309.611 650.363 308.662C647.74 307.712 644.912 307.457 642.129 307.201C638.622 306.916 627.268 305.572 623.309 308.706C623.036 308.918 622.79 309.163 622.578 309.436C622.491 309.556 622.412 309.683 622.344 309.816L622.308 309.874C622.228 310.026 622.162 310.185 622.11 310.349C622.055 310.528 622.014 310.711 621.986 310.897C621.986 310.955 621.986 311.014 621.986 311.072C621.986 311.13 621.986 311.328 621.986 311.459V311.656C621.986 311.788 621.986 311.919 621.986 312.058C621.986 312.197 621.986 312.16 621.986 312.211C622.037 312.869 622.132 313.526 622.132 314.176C622.14 314.5 622.111 314.823 622.045 315.14C621.801 316.001 621.389 316.806 620.832 317.506L620.7 317.696C620.62 317.813 620.54 317.923 620.467 318.04C620.394 318.156 620.335 318.244 620.277 318.346C620.218 318.449 620.16 318.514 620.109 318.609C620.038 318.73 619.975 318.854 619.919 318.982C619.919 319.055 619.838 319.12 619.809 319.193C619.718 319.391 619.644 319.596 619.59 319.807C619.419 320.442 619.404 321.108 619.546 321.75C619.743 322.569 620.082 323.348 620.547 324.05C620.73 324.35 620.927 324.642 621.131 324.934L621.643 325.628C621.547 326.306 621.496 326.989 621.489 327.673C621.49 329.96 622.009 332.217 623.009 334.274C624.009 336.331 625.463 338.135 627.261 339.548C627.551 342.633 627.519 345.739 627.166 348.817C627.1 349.459 627.02 350.109 626.932 350.752C626.845 351.395 626.779 351.818 626.691 352.352C625.622 352.505 624.533 352.422 623.499 352.111C623.022 351.898 622.534 351.71 622.037 351.548C619.911 351.015 617.741 353.133 615.637 352.49C615.637 352.593 615.579 352.687 615.542 352.782C615.103 352.51 614.598 352.361 614.081 352.352C612.832 352.293 611.816 351.387 610.91 350.533L608.127 347.911C607.945 347.75 607.784 347.569 607.645 347.371C607.495 347.087 607.382 346.785 607.309 346.472C606.841 344.96 605.709 343.755 604.613 342.609C604.405 342.347 604.13 342.148 603.816 342.032C603.695 342.013 603.572 342.013 603.451 342.032C603.376 341.93 603.296 341.832 603.21 341.739C603.021 341.522 602.818 341.318 602.604 341.126C601.274 339.899 601.142 338.847 599.988 337.474C598.981 336.165 598.068 334.786 597.256 333.348C597.161 332.581 597.029 331.792 596.868 330.996C596.5 329.173 595.964 327.389 595.268 325.664L593.807 322.429L593.639 322.597C592.58 321.019 591.447 320.158 590.432 320.362C588.729 320.713 587.889 324.014 588.16 328.33L588.744 332.712C588.744 332.822 588.795 332.931 588.824 333.041C588.719 333.56 588.665 334.089 588.664 334.619C588.664 335.232 589.234 335.685 589.533 336.233C590.013 336.975 590.266 337.84 590.264 338.723C590.227 339.037 590.132 339.337 590.118 339.643C590.157 340.33 590.396 340.989 590.804 341.542L594.457 347.677L595.188 348.963L595.232 349.021C595.462 349.47 595.798 349.856 596.211 350.146C596.354 351.682 596.762 353.182 597.416 354.579C597.54 354.857 597.679 355.12 597.825 355.382C598.808 356.996 599.964 358.498 601.274 359.86L603.013 361.81C604.73 363.723 606.446 365.644 608.31 367.411C608.976 368.121 609.782 368.685 610.677 369.069C611.115 369.244 611.591 369.301 612.058 369.233C612.525 369.165 612.966 368.975 613.336 368.682C613.336 369.588 613.336 370.493 613.336 371.399C613.607 371.416 613.869 371.505 614.095 371.656C614.32 371.808 614.501 372.017 614.619 372.262C614.736 372.507 614.786 372.779 614.764 373.049C614.741 373.32 614.647 373.58 614.49 373.802C612.956 377.739 611.407 381.712 609.084 385.239C610.724 386.21 612.244 387.369 613.614 388.694C614.502 389.678 615.293 390.747 615.973 391.886C616.039 392.426 616.09 392.959 616.12 393.492C616.66 402.198 613.292 410.838 610.275 419.135C609.405 421.487 608.456 423.948 608.529 426.395C607.956 426.748 607.409 427.141 606.892 427.571C607.491 429.134 607.257 430.529 607.192 432.201C607.17 433.204 606.964 434.194 606.585 435.122C606.268 435.766 605.916 436.393 605.533 436.999C603.641 440.337 603.225 444.303 602.845 448.115C602.618 450.416 603.509 453.228 602.465 455.288C600.66 458.822 599.06 462.591 598.812 466.52C598.803 467.404 598.69 468.285 598.476 469.142C598.249 469.873 597.847 470.493 597.643 471.209C597.432 472.168 597.383 473.155 597.497 474.131C597.636 477.631 597.115 481.127 595.962 484.436C595.049 487.043 594.041 489.833 594.757 492.514C592.994 494.364 591.906 496.754 591.666 499.299C591.648 499.949 591.569 500.597 591.433 501.234C591.209 501.885 590.915 502.51 590.556 503.096C589.085 505.774 588.397 508.811 588.569 511.861C586.377 514.833 585.281 518.5 584.631 522.144C583.981 525.788 583.696 529.499 582.863 533.099C581.752 537.861 579.743 542.674 579.349 547.553C576.981 549.065 575.959 551.994 575.506 554.762C575.053 557.53 574.98 560.436 573.818 562.993C573.219 564.322 572.357 565.512 571.787 566.871C571.387 567.952 571.094 569.07 570.91 570.209C570.56 571.991 570.253 573.977 570.684 575.686C570.064 576.342 569.341 576.893 568.543 577.315C568.66 576.862 568.755 576.409 568.835 575.949C566.95 577.658 563.531 577.059 562.026 579.112C561.574 579.773 561.398 580.585 561.534 581.374C561.671 582.163 562.109 582.869 562.757 583.34C563.228 583.627 563.737 583.846 564.269 583.99C567.922 585.159 571.677 586.335 575.433 585.714C575.877 585.666 576.306 585.529 576.697 585.312C577.185 584.953 577.587 584.489 577.873 583.954C578.435 583.063 578.998 582.172 579.553 581.281C580.899 581.682 582.268 582.002 583.652 582.237C583.791 583.406 583.893 584.575 583.944 585.743C584.675 585.889 585.654 585.933 585.997 585.254C586.101 584.997 586.144 584.719 586.121 584.443C586.121 583.925 586.194 583.238 586.238 582.537H586.384C588.613 582.627 590.831 582.178 592.85 581.23C592.068 574.759 594.647 568.434 596.883 562.313C599.243 555.872 601.267 549.313 603.305 542.755C604.766 538.139 606.381 533.669 607.813 529.046C609.615 523.203 611.424 517.36 613.241 511.517C614.03 508.947 614.826 506.405 615.732 503.849C617.639 498.676 619.902 493.642 622.505 488.781C623.236 487.401 623.966 486.035 624.565 484.604C625.296 482.858 625.815 481.032 626.399 479.228C627.673 475.527 629.206 471.92 630.987 468.434C631.038 468.339 631.075 468.251 631.126 468.164C631.718 470.581 632.31 473.035 632.704 475.467C633.238 478.449 633.28 481.499 632.828 484.494C632.478 486.532 631.813 488.548 631.893 490.615C632.003 493.47 633.53 496.063 634.282 498.817C634.767 500.877 635.041 502.982 635.1 505.098C635.305 508.384 637.088 512.072 635.831 515.118C631.922 524.766 633.815 535.663 631.586 545.793C630.439 550.993 626.925 555.879 627.203 561.196C627.398 564.969 627.729 568.733 628.196 572.487C628.309 573.672 628.618 574.829 629.11 575.913C629.401 576.483 629.736 577.03 630.11 577.549C629.789 577.673 629.519 578.001 629.285 578.695C628.686 580.521 629.285 582.785 630.907 583.808C631.568 584.161 632.28 584.408 633.018 584.538C634.012 584.82 635.039 584.963 636.072 584.962C636.393 584.944 636.713 584.905 637.029 584.845C638.159 585.319 639.312 585.734 640.485 586.086C640.485 586.386 640.543 586.685 640.58 586.985C640.582 587.141 640.617 587.296 640.682 587.438C640.748 587.58 640.842 587.707 640.96 587.81C641.142 587.895 641.344 587.93 641.544 587.912H645.511C645.511 587.584 645.511 587.248 645.511 586.919C645.965 586.966 646.424 586.918 646.858 586.777C647.293 586.636 647.692 586.406 648.032 586.101C648.383 585.654 648.633 585.135 648.763 584.582C649.844 580.916 650.918 577.247 651.985 573.575C653.264 569.517 653.796 565.261 653.555 561.013C652.145 547.553 655.243 534.049 654.235 520.552C653.628 512.44 654.045 504.283 655.477 496.275C655.806 494.464 656.207 492.623 656.354 490.819C656.675 487.416 656.28 483.976 656.522 480.594C656.602 479.411 656.763 478.235 656.909 477.059C657.91 469.761 658.434 462.406 658.48 455.039C658.457 452.598 658.306 450.16 658.027 447.736C658.788 447.542 659.48 447.137 660.021 446.567C660.671 445.72 660.503 444.529 660.496 443.448C660.496 440.863 661.585 438.424 662.461 435.984C663.587 432.62 664.509 429.191 665.223 425.715C665.978 422.915 666.39 420.033 666.45 417.134C666.45 416.842 666.436 416.55 666.407 416.257C666.682 416.067 666.911 415.817 667.079 415.527C667.269 415.099 667.388 414.643 667.429 414.176C667.692 412.313 667.963 410.444 668.226 408.574C668.421 407.235 668.613 405.899 668.803 404.564L671.126 388.358C671.323 386.948 671.528 385.546 671.725 384.144L672.332 379.952C672.397 379.455 672.47 378.958 672.522 378.491C674.304 375.511 672.602 371.538 672.412 368.149ZM653.029 428.827C652.167 426.782 651.364 424.686 651.568 422.48H651.488C651.68 421.801 651.647 421.079 651.393 420.42C651.166 419.887 650.772 419.434 650.531 418.901C650.272 418.251 650.138 417.557 650.136 416.856C649.955 412.414 650.305 407.966 651.181 403.608C651.276 403.096 651.378 402.578 651.473 402.067C651.78 401.89 652.06 401.671 652.306 401.417C652.69 400.979 653.008 400.487 653.248 399.956C654.074 398.298 654.827 396.611 655.521 394.895C655.747 394.34 656.076 393.697 656.638 393.558C656.522 397.831 656.96 402.191 655.221 406.047C654.891 406.669 654.645 407.332 654.491 408.019C654.33 409.107 654.783 410.21 654.622 411.291C654.542 411.853 654.301 412.372 654.206 412.927C654.133 413.2 654.135 413.486 654.209 413.758C654.284 414.03 654.428 414.278 654.629 414.475C654.726 414.543 654.832 414.597 654.943 414.636C654.9 414.928 654.863 415.228 654.834 415.512C654.775 416.111 654.746 416.674 654.71 417.024C654.542 418.811 654.476 420.606 654.512 422.4C654.512 424.335 654.586 426.271 654.556 428.243C654.583 428.809 654.489 429.374 654.279 429.9C654.134 430.172 653.946 430.419 653.723 430.631C653.512 429.973 653.278 429.396 653.029 428.827Z" fill="url(#paint0_linear)"/>
<path d="M595.358 344.084C597.587 343.627 598.346 338.141 597.052 331.83C595.759 325.52 592.903 320.774 590.673 321.231C588.444 321.688 587.685 327.174 588.979 333.484C590.272 339.795 593.128 344.54 595.358 344.084Z" fill="#FBBEBE"/>
<path d="M629.402 578.834C628.803 580.645 629.402 582.909 631.024 583.895C631.681 584.246 632.388 584.492 633.121 584.626C634.112 584.906 635.137 585.046 636.167 585.042C637.431 584.984 638.644 584.487 639.908 584.312C640.054 584.275 640.208 584.296 640.339 584.37C640.402 584.438 640.449 584.519 640.477 584.608C640.505 584.696 640.513 584.79 640.5 584.881C640.513 585.6 640.567 586.316 640.66 587.029C640.661 587.185 640.696 587.34 640.761 587.482C640.827 587.625 640.922 587.751 641.04 587.854C641.223 587.939 641.424 587.974 641.625 587.956H645.585C645.674 584.478 645.293 581.005 644.452 577.629C644.397 577.371 644.298 577.124 644.16 576.899C643.824 576.531 643.382 576.276 642.896 576.168C641.928 575.766 640.882 575.583 639.835 575.635C638.556 575.803 637.489 576.628 636.401 577.315C635.312 578.001 633.829 578.608 632.507 578.257C631.184 577.907 630.081 576.804 629.402 578.834Z" fill="#3F3D56"/>
<path d="M571.261 575.628C570.148 576.819 568.782 577.748 567.264 578.345L566.592 578.666C566.499 578.701 566.42 578.765 566.366 578.849C566.353 578.905 566.353 578.964 566.366 579.021C566.378 579.078 566.403 579.131 566.439 579.177C566.998 580.042 567.825 580.7 568.793 581.052C569.761 581.404 570.817 581.431 571.801 581.127C572.237 581.018 572.64 580.808 572.978 580.514C573.535 579.853 573.854 579.025 573.884 578.162C574.105 577.272 574.067 576.337 573.774 575.467C572.759 573.181 572.386 574.218 571.261 575.628Z" fill="#FBBEBE"/>
<path d="M586.443 584.626C586.465 584.902 586.423 585.18 586.318 585.436C585.975 586.108 585.018 586.072 584.273 585.926C584.16 583.448 583.86 580.982 583.374 578.549C581.957 578.483 580.934 579.827 580.174 581.032L578.216 584.136C577.933 584.671 577.534 585.135 577.047 585.495C576.656 585.709 576.227 585.845 575.783 585.897C572.043 586.517 568.265 585.342 564.656 584.173C564.125 584.03 563.616 583.814 563.144 583.53C562.5 583.057 562.064 582.354 561.928 581.567C561.792 580.78 561.966 579.97 562.413 579.309C563.926 577.264 567.323 577.848 569.208 576.154C569.011 577.346 568.688 578.514 568.244 579.637C570.764 579.258 572.459 576.95 574.49 575.409C575 574.976 575.615 574.684 576.273 574.561C576.765 574.52 577.261 574.572 577.734 574.715C580.076 575.304 582.267 576.382 584.163 577.877C584.93 578.483 586.129 579.338 586.465 580.273C586.823 581.39 586.443 583.435 586.443 584.626Z" fill="#3F3D56"/>
<path d="M636.7 343.653C645.037 343.653 651.795 336.897 651.795 328.564C651.795 320.23 645.037 313.475 636.7 313.475C628.364 313.475 621.606 320.23 621.606 328.564C621.606 336.897 628.364 343.653 636.7 343.653Z" fill="#FBBEBE"/>
<path d="M666.436 417.652C666.375 420.537 665.965 423.404 665.216 426.19C664.501 429.651 663.579 433.065 662.454 436.415C661.585 438.847 660.496 441.287 660.503 443.865C660.503 444.938 660.679 446.129 660.021 446.976C659.436 447.571 658.697 447.993 657.888 448.196C657.484 448.303 657.111 448.504 656.798 448.781C656.486 449.059 656.244 449.406 656.09 449.795C655.405 448.771 654.891 447.641 654.571 446.45C653.261 442.438 652.043 438.404 650.918 434.348C650.815 434.115 650.77 433.86 650.788 433.605C650.806 433.351 650.886 433.104 651.02 432.888C651.206 432.726 651.422 432.605 651.656 432.53C652.405 432.224 653.091 431.784 653.68 431.23C653.956 430.984 654.184 430.69 654.352 430.361C654.564 429.837 654.661 429.274 654.637 428.71C654.637 426.775 654.637 424.846 654.585 422.911C654.555 421.124 654.623 419.337 654.79 417.557C654.79 417.207 654.856 416.645 654.914 416.046C655.024 414.899 655.243 413.57 655.864 413.124C656.792 412.503 659.568 413.336 660.62 413.482C662.432 413.73 664.273 414.023 666.041 414.366C666.298 415.443 666.43 416.545 666.436 417.652Z" fill="#3F3D56"/>
<path d="M605.489 345.457C604.905 346.626 603.502 347.188 602.421 347.926L598.717 350.467C598.469 350.69 598.179 350.861 597.864 350.969C597.549 351.077 597.215 351.12 596.883 351.095C596.581 350.984 596.305 350.814 596.071 350.594C595.836 350.375 595.648 350.111 595.517 349.817C595.519 349.798 595.519 349.778 595.517 349.759L594.75 348.473L591.097 342.353C590.69 341.805 590.454 341.15 590.417 340.469C590.417 340.155 590.527 339.863 590.556 339.548C590.566 338.666 590.311 337.802 589.825 337.065C589.533 336.518 588.949 336.065 588.963 335.451C588.935 334.645 589.075 333.842 589.372 333.092C589.756 332.399 590.305 331.811 590.972 331.383C591.316 331.135 591.666 330.901 592.032 330.653C592.226 330.52 592.441 330.422 592.667 330.361C593.274 330.236 593.873 330.74 594.487 330.762C597.124 332.53 598.14 335.875 600.214 338.285C601.383 339.658 601.5 340.71 602.823 341.937C603.035 342.127 603.239 342.331 603.436 342.543C603.698 342.828 603.919 343.147 604.094 343.492C604.335 344.12 605.789 344.858 605.489 345.457Z" fill="#3F3D56"/>
<path d="M631.396 343.66C632.485 345.961 633.332 348.488 633.018 351.015C632.954 351.7 632.737 352.361 632.383 352.95C631.331 354.565 629.124 354.857 627.203 354.952C626.798 354.918 626.39 354.965 626.004 355.09C625.618 355.215 625.26 355.417 624.952 355.682C624.696 356.055 624.57 356.503 624.595 356.955C624.62 357.407 624.795 357.838 625.091 358.18C625.709 358.839 626.475 359.34 627.327 359.64C630.366 360.977 633.646 362.08 636.949 361.773C638.483 361.627 639.973 361.182 641.5 360.955C643.165 360.775 644.838 360.682 646.512 360.678C648.5 360.605 650.479 360.407 652.459 360.21L657.705 359.692C657.992 359.696 658.27 359.594 658.487 359.407C658.874 358.954 658.377 358.289 657.895 357.946C655.111 355.886 651.568 354.47 649.983 351.373C649.252 349.912 649.026 348.174 648.485 346.596C647.944 345.019 647.082 343.595 646.746 341.988C646.567 340.578 646.486 339.158 646.505 337.737C646.523 336.305 646.002 334.917 645.044 333.852C643.999 332.88 642.487 332.632 641.069 332.574C637.577 332.42 633.858 333.253 631.382 335.714C630.717 336.379 630.147 337.175 629.46 337.774C628.773 338.373 627.838 338.548 628.291 339.337C628.744 340.125 629.636 340.615 630.118 341.309C630.606 342.057 631.033 342.844 631.396 343.66Z" fill="#FBBEBE"/>
<path d="M661.154 364.906C660.232 370.53 658.734 376.044 656.682 381.361C655.651 383.762 654.772 386.226 654.052 388.738C653.49 391.002 653.599 393.427 653.08 395.698C652.438 398.524 651.795 401.358 651.276 404.207C650.406 408.556 650.057 412.994 650.238 417.426C650.24 418.124 650.374 418.815 650.633 419.464C650.874 419.99 651.261 420.442 651.488 420.983C651.657 421.458 651.726 421.962 651.691 422.465C651.656 422.968 651.517 423.458 651.283 423.904C650.908 424.74 650.4 425.51 649.778 426.183C642.969 428.213 635.685 427.549 628.591 427.98C622.052 428.374 615.44 429.718 608.996 428.6C608.266 425.679 609.486 422.619 610.53 419.77C613.562 411.496 616.916 402.877 616.375 394.208C616.319 393.197 616.204 392.19 616.032 391.192C614.972 385.049 616.127 378.688 617.975 372.736C619.122 369.026 619.071 365.074 618.808 361.211C618.678 359.956 618.661 358.692 618.757 357.435C618.863 356.151 619.34 354.925 620.13 353.907C620.13 353.856 620.196 353.805 620.233 353.754C620.269 353.703 620.554 353.71 620.781 353.754C620.838 353.778 620.901 353.791 620.963 353.791C621.026 353.791 621.088 353.778 621.146 353.754L621.226 353.703C621.257 353.681 621.294 353.669 621.332 353.669C621.37 353.669 621.407 353.681 621.438 353.703C621.606 353.805 621.701 354.156 622.067 354.221C622.606 354.303 623.15 354.354 623.696 354.375C624.352 354.394 625.004 354.487 625.639 354.652H625.727C626.677 354.812 627.652 354.729 628.562 354.411C629.167 354.26 629.751 354.034 630.3 353.739C630.461 353.564 631.469 353.403 631.674 353.279C632.339 352.877 632.193 350.993 632.331 350.219C632.408 349.442 632.593 348.68 632.879 347.955C633.212 347.419 633.671 346.973 634.216 346.656C634.762 346.339 635.376 346.161 636.006 346.136C637.264 346.106 638.522 346.219 639.754 346.472C642.479 346.859 645.27 346.794 647.944 347.422C649.289 347.736 650.757 348.21 651.992 347.597C652.328 347.677 652.379 347.969 652.379 348.327C652.348 348.667 652.279 349.003 652.174 349.328C651.707 351.344 653.292 353.199 654.753 354.659C655.371 355.348 656.099 355.928 656.909 356.376C657.639 356.712 658.37 356.851 659.101 357.216C659.692 357.531 660.195 357.991 660.562 358.552C660.983 359.196 661.266 359.919 661.395 360.678C661.551 362.091 661.47 363.52 661.154 364.906Z" fill="#3F3D56"/>
<path opacity="0.1" d="M661.153 364.906C660.232 370.53 658.734 376.044 656.682 381.361C655.651 383.762 654.772 386.226 654.052 388.738C653.49 391.002 653.599 393.427 653.08 395.698C652.437 398.524 651.795 401.358 651.276 404.207C651.122 404.294 650.962 404.375 650.801 404.448C649.892 404.882 648.929 405.191 647.937 405.368C646.156 405.583 644.352 405.524 642.589 405.193L632.163 403.798C627.999 403.235 623.564 402.556 620.474 399.737C618.757 398.189 617.632 396.144 616.397 394.172C616.34 393.16 616.226 392.153 616.054 391.155C614.994 385.013 616.149 378.652 617.997 372.699C619.144 368.989 619.093 365.038 618.83 361.174C618.7 359.92 618.683 358.656 618.779 357.398C618.885 356.114 619.362 354.888 620.152 353.871C620.366 353.808 620.583 353.759 620.803 353.725C620.95 353.695 621.099 353.675 621.248 353.666H621.46C621.706 353.667 621.951 353.696 622.191 353.754C622.689 353.912 623.176 354.1 623.652 354.316H623.74C624.366 354.522 625.024 354.616 625.683 354.594C626.647 354.594 627.641 354.44 628.605 354.375C629.797 354.189 631.016 354.407 632.068 354.995C632.748 355.541 633.392 356.129 633.997 356.756C634.728 357.33 635.551 357.776 636.43 358.077C642.719 360.477 649.696 360.33 655.879 357.668C656.472 357.331 657.146 357.159 657.829 357.172C658.334 357.271 658.812 357.475 659.232 357.771C659.67 358.026 660.101 358.275 660.547 358.501C660.968 359.145 661.252 359.868 661.38 360.626C661.547 362.056 661.471 363.503 661.153 364.906Z" fill="black"/>
<path d="M667.517 360.071C664.608 359.183 661.812 357.957 659.188 356.42C658.767 356.126 658.289 355.922 657.785 355.821C657.101 355.813 656.426 355.984 655.827 356.317C649.647 358.979 642.673 359.126 636.386 356.726C635.508 356.422 634.686 355.976 633.953 355.404C633.346 354.78 632.702 354.192 632.025 353.644C629.621 352.089 626.297 353.914 623.608 352.914C623.131 352.701 622.644 352.513 622.147 352.352C620.021 351.818 617.858 353.936 615.769 353.294C614.991 355.406 614.417 357.587 614.052 359.808C613.755 362.359 613.596 364.924 613.577 367.492C613.577 369.033 613.504 370.574 613.577 372.115C613.835 372.157 614.08 372.252 614.299 372.394C614.518 372.536 614.705 372.722 614.848 372.94C614.944 373.195 614.983 373.467 614.963 373.738C614.943 374.009 614.864 374.273 614.731 374.51C613.204 378.432 611.656 382.398 609.34 385.911C610.972 386.884 612.487 388.04 613.855 389.359C616.412 392.061 617.668 395.851 620.43 398.349C623.542 401.161 627.977 401.848 632.12 402.403L642.545 403.798C644.311 404.128 646.116 404.19 647.9 403.98C648.89 403.8 649.851 403.488 650.757 403.053C651.349 402.805 651.89 402.448 652.35 402.001C652.735 401.564 653.053 401.071 653.292 400.54C654.118 398.89 654.87 397.203 655.564 395.493C655.806 394.887 656.171 394.179 656.828 394.128C660.701 390.637 664.353 387.058 668.226 383.567C669.782 382.278 671.177 380.806 672.383 379.185C674.304 376.344 672.558 372.319 672.383 368.887C672.362 368.009 672.251 367.135 672.054 366.279C671.426 363.789 669.95 360.809 667.517 360.071Z" fill="#6C63FF"/>
<path opacity="0.1" d="M605.489 345.457C604.905 346.626 603.502 347.188 602.421 347.926L598.717 350.467C598.469 350.69 598.179 350.861 597.864 350.969C597.549 351.077 597.215 351.12 596.883 351.095C596.581 350.984 596.305 350.814 596.071 350.594C595.836 350.375 595.648 350.11 595.517 349.817C595.517 349.649 595.517 349.467 595.517 349.291C595.489 348.7 595.568 348.109 595.751 347.546C596.113 346.72 596.676 345.997 597.387 345.442C598.762 344.14 600.398 343.145 602.187 342.521C602.466 342.413 602.769 342.382 603.064 342.433C603.177 342.463 603.286 342.51 603.385 342.572C603.647 342.857 603.868 343.177 604.043 343.522C604.335 344.12 605.789 344.858 605.489 345.457Z" fill="black"/>
<path d="M614.213 353.155C612.971 353.097 611.955 352.198 611.049 351.344L608.28 348.773C608.095 348.616 607.933 348.434 607.798 348.232C607.648 347.948 607.535 347.647 607.462 347.334C606.875 345.859 605.955 344.539 604.773 343.478C604.567 343.216 604.291 343.019 603.977 342.908C603.68 342.853 603.373 342.884 603.093 342.996C601.304 343.618 599.668 344.614 598.293 345.917C597.582 346.472 597.02 347.195 596.656 348.021C596.473 348.583 596.394 349.175 596.423 349.766C596.44 351.696 596.873 353.599 597.694 355.346C597.818 355.616 597.957 355.886 598.103 356.149C599.078 357.76 600.23 359.257 601.537 360.612L603.276 362.555C604.985 364.468 606.695 366.382 608.551 368.142C609.216 368.851 610.022 369.413 610.918 369.792C611.367 369.976 611.859 370.032 612.338 369.955C612.818 369.877 613.266 369.67 613.635 369.354C613.985 368.949 614.249 368.477 614.41 367.967C615.535 365.045 616.602 362.007 616.667 358.859C616.683 357.598 616.63 356.338 616.507 355.083C616.397 353.754 615.455 353.235 614.213 353.155Z" fill="#6C63FF"/>
<path d="M658.487 455.404C658.445 462.751 657.922 470.087 656.923 477.366C656.777 478.542 656.617 479.718 656.536 480.894C656.295 484.304 656.69 487.73 656.368 491.119C656.2 492.952 655.82 494.77 655.499 496.56C654.071 504.546 653.654 512.68 654.257 520.771C655.265 534.231 652.175 547.699 653.577 561.123C653.747 563.733 653.603 566.355 653.146 568.93C652.885 570.529 652.506 572.106 652.014 573.649C650.947 577.305 649.876 580.957 648.799 584.604C648.673 585.159 648.423 585.678 648.069 586.123C647.696 586.445 647.259 586.684 646.786 586.824C646.314 586.964 645.817 587.001 645.329 586.934C641.113 586.802 637.146 584.984 633.318 583.209C632.878 583.035 632.47 582.788 632.112 582.478C631.316 581.653 631.382 580.353 631.031 579.265C630.68 578.177 629.731 577.154 629.19 576.037C628.745 574.98 628.476 573.857 628.394 572.714C627.907 568.974 627.575 565.22 627.4 561.452C627.122 556.149 630.629 551.271 631.784 546.114C633.975 535.977 632.12 525.109 636.014 515.491C637.241 512.452 635.459 508.771 635.283 505.499C635.22 503.388 634.946 501.289 634.465 499.233C633.734 496.487 632.193 493.901 632.083 491.053C632.003 488.993 632.668 486.985 633.011 484.954C633.467 481.966 633.425 478.924 632.887 475.949C632.5 473.495 631.908 471.041 631.316 468.646L631.185 468.916C629.404 472.394 627.874 475.994 626.604 479.689C626.019 481.478 625.508 483.304 624.777 485.042C624.178 486.503 623.44 487.839 622.717 489.212C620.123 494.054 617.865 499.069 615.959 504.221C615.053 506.748 614.257 509.334 613.468 511.868L608.054 529.396C606.593 534.005 604.993 538.46 603.561 543.061C601.537 549.635 599.513 556.149 597.161 562.576C594.969 568.675 592.361 574.992 593.142 581.434C591.128 582.381 588.915 582.829 586.691 582.741C582.926 582.408 579.232 581.512 575.732 580.083C574.337 579.564 572.89 578.98 571.948 577.833C570.326 575.854 570.728 572.955 571.217 570.435C571.402 569.299 571.695 568.184 572.094 567.105C572.649 565.761 573.555 564.57 574.125 563.241C575.272 560.692 575.345 557.807 575.798 555.039C576.251 552.271 577.259 549.35 579.626 547.845C580.028 542.981 582.03 538.183 583.133 533.428C583.966 529.827 584.244 526.124 584.901 522.473C585.559 518.821 586.618 515.169 588.824 512.211C588.65 509.161 589.339 506.124 590.812 503.447C591.167 502.859 591.459 502.235 591.681 501.585C591.817 500.95 591.896 500.305 591.915 499.656C592.157 497.119 593.242 494.735 594.998 492.886C594.267 490.22 595.283 487.438 596.196 484.852C597.346 481.553 597.867 478.067 597.73 474.576C597.617 473.601 597.664 472.614 597.869 471.655C598.074 470.924 598.476 470.304 598.709 469.602C598.918 468.744 599.028 467.864 599.038 466.98C599.323 463.029 600.923 459.304 602.691 455.777C603.743 453.717 602.852 450.92 603.071 448.627C603.451 444.814 603.867 440.87 605.76 437.547C606.11 436.919 606.49 436.32 606.804 435.67C607.185 434.742 607.391 433.752 607.411 432.749C607.477 431.076 607.71 429.689 607.111 428.133C611.02 424.883 616.353 423.97 621.438 423.751C626.523 423.532 631.667 423.992 636.642 422.911C638.103 422.582 639.564 422.129 641.106 421.91C644.606 421.399 648.156 422.195 651.612 422.984C651.371 425.175 652.175 427.278 653.073 429.316C656.582 437.57 658.422 446.436 658.487 455.404Z" fill="#33313F"/>
<path opacity="0.1" d="M641.281 457.077L632.887 475.949C632.499 473.495 631.908 471.041 631.316 468.646L631.184 468.916V468.522L635.758 458.465L641.281 457.077Z" fill="black"/>
<path opacity="0.1" d="M666.436 417.652C665.951 418.015 665.373 418.23 664.77 418.273C663.845 418.306 662.92 418.18 662.038 417.901L655.462 416.257C655.256 416.207 655.055 416.136 654.863 416.046C654.973 414.899 655.192 413.57 655.813 413.124C656.741 412.503 659.517 413.336 660.569 413.482C662.381 413.73 664.222 414.023 665.99 414.366C666.264 415.441 666.414 416.543 666.436 417.652Z" fill="black"/>
<path d="M671.996 374.196C672.134 374.803 672.332 375.401 672.449 376.015C672.645 377.52 672.593 379.047 672.295 380.536L671.696 384.714L671.097 388.913L668.781 405.076L668.211 409.078L667.407 414.665C667.369 415.13 667.251 415.585 667.057 416.009C666.817 416.406 666.483 416.737 666.084 416.973C665.685 417.209 665.233 417.342 664.77 417.36C663.845 417.39 662.921 417.264 662.038 416.988L655.462 415.337C655.174 415.286 654.9 415.174 654.658 415.009C654.458 414.812 654.312 414.566 654.238 414.295C654.164 414.025 654.162 413.739 654.235 413.468C654.33 412.912 654.571 412.394 654.651 411.839C654.812 410.758 654.359 409.648 654.52 408.574C654.677 407.89 654.923 407.23 655.25 406.61C657.442 401.767 656.171 396.114 656.916 390.856C657.587 386.717 659.335 382.828 661.986 379.579C663.622 377.528 665.502 375.684 667.583 374.087C668.401 373.451 669.701 372.144 670.732 371.896C672.054 371.618 671.776 373.276 671.996 374.196Z" fill="#6C63FF"/>
<path d="M622.235 311.284C621.752 312.818 622.505 314.505 622.162 316.068C621.789 317.791 620.167 318.989 619.707 320.72C618.976 323.357 621.212 325.759 622.848 327.95C628.912 336.087 628.116 347.349 626.041 357.274C624.372 365.237 622.063 373.053 619.137 380.645C618.224 383.004 617.215 385.4 615.418 387.167C618.779 386.203 622.352 385.232 625.72 386.167C629.986 387.35 633.668 391.491 637.994 390.549C640.594 389.972 642.421 387.664 644.759 386.386C649.142 384.027 654.425 385.51 659.312 386.269C660.366 386.518 661.468 386.462 662.491 386.108C663.272 385.688 663.936 385.078 664.419 384.334C666.601 381.536 667.907 378.157 668.175 374.62C668.29 372.859 668.03 371.093 667.412 369.44C666.793 367.787 665.831 366.284 664.587 365.03C663.55 364.052 662.308 363.263 661.511 362.109C660.737 360.761 660.322 359.237 660.306 357.683C659.729 349.649 661.687 341.447 659.67 333.676C658.94 330.908 657.749 328.257 657.427 325.423C657.026 321.896 657.983 318.12 656.58 314.892C655.477 312.328 653.044 310.51 650.421 309.575C647.798 308.64 644.993 308.377 642.209 308.114C638.205 307.778 623.908 306.062 622.235 311.284Z" fill="#33313F"/>
<g opacity="0.1">
<path opacity="0.1" d="M626.041 357.274C624.38 365.204 622.083 372.988 619.173 380.55C619.678 379.55 620.101 378.498 620.503 377.454C623.432 369.863 625.741 362.047 627.407 354.083C629.489 344.15 630.286 332.902 624.222 324.759C622.761 322.816 620.883 320.713 620.949 318.434C620.409 319.123 619.989 319.898 619.707 320.727C618.976 323.364 621.212 325.767 622.848 327.958C628.912 336.087 628.116 347.349 626.041 357.274Z" fill="black"/>
<path opacity="0.1" d="M622.249 315.33C622.836 314.602 623.272 313.766 623.535 312.869C623.648 311.784 623.618 310.689 623.447 309.611C622.885 310.035 622.462 310.617 622.235 311.284C621.804 312.577 622.3 313.979 622.249 315.33Z" fill="black"/>
<path opacity="0.1" d="M665.793 381.12C665.309 381.862 664.646 382.47 663.864 382.888C662.843 383.248 661.738 383.304 660.686 383.048C655.798 382.318 650.458 380.813 646.132 383.172C643.787 384.443 641.968 386.751 639.36 387.335C635.042 388.3 631.36 384.158 627.093 382.953C624.068 382.113 620.883 382.807 617.836 383.684C617.231 384.974 616.414 386.154 615.418 387.175C618.779 386.211 622.352 385.239 625.72 386.174C629.986 387.357 633.668 391.498 637.994 390.556C640.595 389.979 642.421 387.671 644.759 386.393C649.143 384.034 654.425 385.517 659.312 386.276C660.366 386.525 661.468 386.469 662.491 386.116C663.272 385.696 663.936 385.085 664.419 384.341C665.743 382.595 666.766 380.64 667.444 378.557C666.956 379.45 666.404 380.306 665.793 381.12Z" fill="black"/>
</g>
</g>
<defs>
<linearGradient id="paint0_linear" x1="561.537" y1="447.283" x2="673.318" y2="447.283" gradientUnits="userSpaceOnUse">
<stop stop-color="#808080" stop-opacity="0.25"/>
<stop offset="0.54" stop-color="#808080" stop-opacity="0.12"/>
<stop offset="1" stop-color="#808080" stop-opacity="0.1"/>
</linearGradient>
<clipPath id="clip0">
<rect width="852" height="588" fill="white"/>
</clipPath>
</defs>
</svg>
