<svg width="814" height="591" viewBox="0 0 814 591" fill="none" xmlns="http://www.w3.org/2000/svg">
<g clip-path="url(#clip0)">
<path opacity="0.1" d="M259.882 22.2934C281.862 2.75097 316.352 -1.25522 347.743 0.300652C446.353 5.19377 535.365 52.7645 612.356 106.574C640.234 126.049 667.675 147.042 685.767 173.867C722.626 228.466 711.674 304.117 660.461 349.095C643.032 364.406 621.909 376.154 600.223 386.534C561.663 405.031 520.057 419.876 476.3 424.115C445.089 427.122 413.496 424.679 382.473 420.478C295.793 408.714 210.708 382.738 139.396 338.339C108.119 318.842 78.631 294.617 65.7377 263.078C52.8444 231.54 61.0964 191.591 93.0363 172.928C106.246 165.209 122.042 161.721 137.501 158.451C160.263 153.633 183.387 148.883 203.931 139.089C225.144 128.972 250.261 109.4 246.056 87.0088C241.557 62.9416 237.939 41.8358 259.882 22.2934Z" fill="#6C63FF"/>
<path opacity="0.1" d="M639.73 537.424C685.205 537.424 722.07 535.061 722.07 532.147C722.07 529.233 685.205 526.871 639.73 526.871C594.255 526.871 557.39 529.233 557.39 532.147C557.39 535.061 594.255 537.424 639.73 537.424Z" fill="#6C63FF"/>
<path opacity="0.1" d="M425.712 502.112C471.187 502.112 508.051 499.75 508.051 496.836C508.051 493.922 471.187 491.559 425.712 491.559C380.237 491.559 343.372 493.922 343.372 496.836C343.372 499.75 380.237 502.112 425.712 502.112Z" fill="#6C63FF"/>
<path opacity="0.1" d="M123.419 585.814C168.894 585.814 205.759 583.451 205.759 580.537C205.759 577.623 168.894 575.261 123.419 575.261C77.9441 575.261 41.0795 577.623 41.0795 580.537C41.0795 583.451 77.9441 585.814 123.419 585.814Z" fill="#6C63FF"/>
<path opacity="0.1" d="M279.884 591C298.596 591 313.764 590.027 313.764 588.828C313.764 587.628 298.596 586.656 279.884 586.656C261.172 586.656 246.003 587.628 246.003 588.828C246.003 590.027 261.172 591 279.884 591Z" fill="#6C63FF"/>
<path opacity="0.1" d="M787.589 534.59C802.171 534.59 813.993 533.833 813.993 532.899C813.993 531.965 802.171 531.208 787.589 531.208C773.007 531.208 761.186 531.965 761.186 532.899C761.186 533.833 773.007 534.59 787.589 534.59Z" fill="#6C63FF"/>
<path opacity="0.1" d="M545.257 499.091C557.621 499.091 567.643 498.448 567.643 497.655C567.643 496.862 557.621 496.219 545.257 496.219C532.893 496.219 522.87 496.862 522.87 497.655C522.87 498.448 532.893 499.091 545.257 499.091Z" fill="#6C63FF"/>
<path d="M791.388 492.311C791.388 492.311 794.923 496.933 789.763 503.909C784.603 510.884 780.33 516.769 782.053 521.113C782.053 521.113 789.853 508.163 796.195 507.982C802.536 507.802 798.376 500.105 791.388 492.311Z" fill="#6C63FF"/>
<path opacity="0.1" d="M791.388 492.311C791.706 492.757 791.959 493.245 792.14 493.762C798.331 501.03 801.626 507.81 795.676 507.982C790.132 508.14 783.482 518.047 781.887 520.55C781.939 520.741 782.001 520.929 782.075 521.113C782.075 521.113 789.876 508.163 796.217 507.982C802.559 507.802 798.376 500.105 791.388 492.311Z" fill="black"/>
<path d="M797.97 498.196C797.97 499.827 797.789 501.142 797.564 501.142C797.338 501.142 797.157 499.827 797.157 498.196C797.157 496.565 797.383 497.339 797.609 497.339C797.834 497.339 797.97 496.573 797.97 498.196Z" fill="#FFD037"/>
<path d="M800.227 500.143C798.797 500.895 797.556 501.391 797.443 501.195C797.331 501 798.406 500.203 799.836 499.421C801.265 498.64 800.701 499.211 800.806 499.421C800.911 499.632 801.656 499.361 800.227 500.143Z" fill="#FFD037"/>
<path d="M772.725 492.311C772.725 492.311 769.19 496.933 774.357 503.909C779.525 510.884 783.783 516.769 782.06 521.113C782.06 521.113 774.267 508.163 767.918 507.982C761.569 507.802 765.744 500.105 772.725 492.311Z" fill="#6C63FF"/>
<path opacity="0.1" d="M772.725 492.311C772.406 492.756 772.152 493.244 771.973 493.762C765.782 501.03 762.479 507.81 768.43 507.982C773.974 508.14 780.631 518.047 782.218 520.55C782.167 520.741 782.104 520.929 782.03 521.113C782.03 521.113 774.237 508.163 767.888 507.982C761.539 507.802 765.744 500.105 772.725 492.311Z" fill="black"/>
<path d="M766.15 498.196C766.15 499.827 766.331 501.142 766.557 501.142C766.782 501.142 766.97 499.827 766.97 498.196C766.97 496.565 766.737 497.339 766.512 497.339C766.286 497.339 766.15 496.573 766.15 498.196Z" fill="#FFD037"/>
<path d="M763.894 500.143C765.323 500.895 766.572 501.391 766.677 501.195C766.782 501 765.714 500.203 764.285 499.421C762.855 498.64 763.42 499.211 763.314 499.421C763.209 499.632 762.464 499.361 763.894 500.143Z" fill="#FFD037"/>
<path d="M767.316 520.512C767.316 520.512 777.201 520.211 780.18 518.092C783.158 515.972 795.382 513.439 796.127 516.837C796.872 520.234 810.976 533.741 799.82 533.831C788.665 533.921 773.891 532.095 770.912 530.291C767.933 528.487 767.316 520.512 767.316 520.512Z" fill="#A8A8A8"/>
<path opacity="0.2" d="M799.979 532.651C788.823 532.741 774.049 530.915 771.078 529.103C768.821 527.728 767.911 522.782 767.61 520.497H767.279C767.279 520.497 767.903 528.464 770.875 530.268C773.846 532.072 788.62 533.899 799.783 533.808C803.002 533.808 804.116 532.643 804.056 530.945C803.604 531.989 802.378 532.628 799.979 532.651Z" fill="black"/>
<path d="M549.229 462.952C549.229 462.952 552.237 466.898 547.829 472.866C543.421 478.834 539.765 483.87 541.24 487.591C541.24 487.591 547.905 476.512 553.336 476.316C558.767 476.121 555.186 469.612 549.229 462.952Z" fill="#6C63FF"/>
<path opacity="0.1" d="M549.229 462.952C549.491 463.335 549.699 463.752 549.845 464.192C555.111 470.408 557.962 476.218 552.854 476.354C548.115 476.489 542.421 484.967 541.059 487.11C541.104 487.273 541.16 487.434 541.225 487.591C541.225 487.591 547.89 476.512 553.321 476.316C558.752 476.121 555.186 469.612 549.229 462.952Z" fill="black"/>
<path d="M554.848 467.988C554.848 469.379 554.69 470.506 554.502 470.506C554.314 470.506 554.148 469.379 554.148 467.988C554.148 466.598 554.344 467.236 554.539 467.236C554.735 467.236 554.848 466.598 554.848 467.988Z" fill="#FFD037"/>
<path d="M556.781 469.649C555.555 470.311 554.524 470.716 554.397 470.544C554.269 470.371 555.224 469.702 556.443 469.04C557.661 468.379 557.195 468.86 557.278 469.04C557.36 469.221 558 468.98 556.781 469.649Z" fill="#FFD037"/>
<path d="M533.251 462.952C533.251 462.952 530.242 466.898 534.643 472.866C539.043 478.834 542.714 483.87 541.24 487.591C541.24 487.591 534.568 476.512 529.136 476.316C523.705 476.121 527.278 469.612 533.251 462.952Z" fill="#6C63FF"/>
<path opacity="0.1" d="M533.251 462.952C532.984 463.333 532.774 463.751 532.627 464.192C527.361 470.408 524.51 476.218 529.618 476.354C534.365 476.489 540.051 484.967 541.413 487.11C541.368 487.267 541.315 487.433 541.255 487.591C541.255 487.591 534.583 476.512 529.152 476.316C523.72 476.121 527.279 469.612 533.251 462.952Z" fill="black"/>
<path d="M527.625 467.988C527.625 469.379 527.782 470.506 527.978 470.506C528.174 470.506 528.324 469.379 528.324 467.988C528.324 466.598 528.128 467.236 527.933 467.236C527.737 467.236 527.625 466.598 527.625 467.988Z" fill="#FFD037"/>
<path d="M525.699 469.649C526.917 470.311 527.955 470.716 528.076 470.544C528.196 470.371 527.256 469.702 526.03 469.04C524.804 468.379 525.277 468.86 525.195 469.04C525.112 469.221 524.473 468.98 525.699 469.649Z" fill="#FFD037"/>
<path d="M528.587 487.08C528.587 487.08 537.043 486.816 539.593 485.005C542.143 483.194 552.606 481.021 553.238 483.93C553.87 486.839 565.943 498.399 556.397 498.474C546.852 498.549 534.214 496.971 531.672 495.468C529.129 493.964 528.587 487.08 528.587 487.08Z" fill="#A8A8A8"/>
<path opacity="0.2" d="M556.571 497.46C547.017 497.542 534.38 495.956 531.837 494.453C529.904 493.273 529.129 489.041 528.873 487.087H528.587C528.587 487.087 529.121 493.897 531.672 495.445C534.222 496.994 546.852 498.557 556.397 498.452C559.151 498.452 560.106 497.452 560.053 496.001C559.7 496.933 558.617 497.445 556.571 497.46Z" fill="black"/>
<g opacity="0.8">
<path opacity="0.8" d="M111.165 467.342C122.289 467.346 133.162 470.646 142.409 476.824C151.657 483.002 158.863 491.781 163.118 502.051C167.372 512.321 168.484 523.621 166.312 534.522C164.14 545.424 158.783 555.437 150.916 563.296C143.05 571.155 133.028 576.507 122.118 578.675C111.208 580.844 99.8987 579.732 89.6211 575.479C79.3434 571.227 70.5583 564.025 64.3765 554.784C58.1946 545.543 54.8935 534.679 54.8905 523.564C54.8856 516.178 56.3378 508.865 59.1642 502.041C61.9906 495.217 66.1357 489.017 71.3624 483.795C76.5891 478.573 82.7948 474.432 89.6245 471.609C96.4542 468.786 103.774 467.336 111.165 467.342Z" fill="#E74D89"/>
<path opacity="0.8" d="M111.165 583.754C99.2504 583.741 87.607 580.199 77.7064 573.575C67.8059 566.952 60.0925 557.545 55.5412 546.542C50.9899 535.54 49.8048 523.436 52.1359 511.761C54.4669 500.086 60.2093 489.363 68.6375 480.948C77.0656 472.533 87.8012 466.803 99.4874 464.483C111.174 462.162 123.286 463.356 134.294 467.911C145.302 472.467 154.711 480.182 161.332 490.079C167.953 499.977 171.49 511.613 171.494 523.519C171.48 539.498 165.118 554.818 153.806 566.112C142.494 577.407 127.157 583.752 111.165 583.754ZM162.024 531.764C151.609 528.729 140.663 527.96 129.926 529.509C134.324 541.423 137.679 553.695 139.953 566.189C145.803 562.275 150.782 557.198 154.58 551.275C158.377 545.352 160.911 538.71 162.024 531.764ZM131.295 570.939C128.873 557.626 125.196 544.572 120.312 531.952C120.208 532.002 120.096 532.032 119.981 532.042C90.8999 542.167 80.4815 562.28 79.5412 564.159C88.5695 571.188 99.6898 575 111.135 574.99C118.052 575.039 124.905 573.659 131.265 570.939H131.295ZM72.899 557.988C74.0724 556.012 88.2144 532.658 114.798 524.037C115.453 523.804 116.16 523.616 116.822 523.428C115.551 520.505 114.136 517.588 112.624 514.717C86.898 522.391 61.9163 522.06 59.6521 522.015C59.6521 522.534 59.607 523.053 59.607 523.564C59.622 536.287 64.3579 548.552 72.899 557.988ZM60.7353 513.063C76.8108 512.993 92.8127 510.889 108.359 506.802C102.532 496.562 96.1585 486.641 89.2676 477.083C82.0556 480.474 75.727 485.486 70.7771 491.729C65.8271 497.971 62.3902 505.273 60.7353 513.063ZM99.0993 473.603C106.166 483.191 112.592 493.234 118.334 503.668C136.666 496.798 144.391 486.433 145.339 485.118C135.922 476.761 123.76 472.152 111.165 472.167C107.101 472.197 103.053 472.688 99.0993 473.633V473.603ZM151.041 491.071C149.958 492.536 141.33 503.6 122.291 511.365C123.464 513.815 124.645 516.31 125.728 518.806C126.104 519.7 126.481 520.595 126.864 521.444C144.015 519.272 161.031 522.759 162.731 523.09C162.604 511.395 158.479 500.094 151.041 491.063V491.071Z" fill="#B2215A"/>
</g>
<path d="M250.667 351.989C249.305 350.283 247.756 338.55 247.756 338.55L241.738 308.65L238.624 291.422C238.624 291.422 237.871 269.663 224.241 258.869L223.18 258.035C223.18 257.84 223.18 257.652 223.18 257.456C223.056 255.355 222.597 253.287 221.819 251.33C221.49 250.697 221.322 249.992 221.33 249.278C221.365 248.997 221.457 248.726 221.601 248.482C222.239 247.607 223.081 246.9 224.053 246.422C226.528 244.919 228.634 242.551 229.206 239.748C229.202 239.685 229.202 239.622 229.206 239.56C229.206 239.44 229.206 239.312 229.258 239.184C229.311 239.056 229.258 239.049 229.258 238.974C229.266 238.843 229.266 238.713 229.258 238.583V238.417C229.258 238.267 229.258 238.109 229.258 237.951C229.255 237.919 229.255 237.886 229.258 237.854C229.258 237.681 229.221 237.5 229.191 237.328V237.29C229.055 236.273 228.663 235.307 228.053 234.481C227.443 233.656 226.633 232.998 225.7 232.57C226.039 232.489 226.355 232.331 226.622 232.108C226.89 231.885 227.102 231.603 227.242 231.284C227.335 231.1 227.408 230.906 227.461 230.706C227.512 230.519 227.545 230.328 227.558 230.134C227.558 230.134 227.558 230.074 227.558 230.044C227.57 229.879 227.57 229.713 227.558 229.548C227.558 229.496 227.558 229.443 227.558 229.39C227.536 229.225 227.5 229.062 227.453 228.902C227.457 228.859 227.457 228.816 227.453 228.774L227.408 228.669C226.904 227.226 225.708 226.113 224.677 224.956C218.735 218.304 217.584 208.946 215.966 200.272C215.071 195.462 213.379 189.982 208.715 188.156C207.397 187.738 206.055 187.397 204.698 187.134C200.561 186.036 197.176 183.15 193.129 181.737C190.395 180.799 187.472 180.554 184.621 181.023C182.447 181.384 180.626 182.451 178.528 182.955C174.014 184.059 168.538 182.827 164.988 186.472C162.498 189.005 162.302 192.869 161.076 196.168C158.759 202.294 152.741 206.751 151.184 213.117C150.184 217.221 151.222 221.385 152.312 225.512C153.134 228.284 153.688 231.128 153.967 234.005C154.009 234.731 154.009 235.459 153.967 236.185C153.806 238.304 153.327 240.387 152.546 242.363C147.46 244.243 142.202 246.46 141.811 247.708C141.059 250.165 128.782 257.171 128.782 257.171C128.782 257.171 124.119 261.147 124.119 262.657C124.119 264.168 122.569 268.904 121.591 268.904C120.613 268.904 118.68 288.018 118.68 288.018V307.891C118.68 307.891 111.496 331.357 109.841 352.177C109.841 352.177 106.938 365.473 111.677 373.102C112.297 374.137 113.088 375.06 114.016 375.831L116.438 382.152C117.29 380.73 118.373 379.46 119.643 378.394C119.763 379.183 119.899 380.107 120.064 381.137C120.267 382.43 120.508 383.896 120.816 385.467C119.312 387.819 115.679 392.742 111.316 394.584C107.284 396.283 112.534 400.777 116.16 403.4C115.197 408.188 113.806 414.066 112.677 414.833C110.729 416.156 104.515 432.812 104.515 432.812C104.515 432.812 92.2766 461.374 109.864 464.606C127.451 467.838 136.418 460.254 136.418 460.254H140.63C140.63 460.254 145.753 457.368 145.896 451.4C148.762 449.039 153.162 445.296 154.058 443.786C154.953 442.275 152.485 437.359 150.921 434.676L151.334 433.924C151.334 433.924 168.057 412.54 170.193 414.81C172.329 417.08 173.691 420.673 172.72 422.95L173.638 436.051V456.488C173.638 456.488 171.239 465.763 173.638 466.71C176.038 467.657 173.638 471.22 173.638 471.22C173.638 471.22 174.533 475.384 174.699 476.707C174.785 478.41 174.785 480.116 174.699 481.818L173.894 502.262L172.337 532.538C172.337 532.538 170.592 535.004 171.953 536.702C173.315 538.401 172.705 542.385 172.337 543.136C171.968 543.888 171.758 550.141 171.758 550.141C171.758 550.141 166.116 556.004 170.592 557.522L170.765 557.575C168.914 559.289 168.892 563.145 169.035 564.34C169.177 565.535 167.846 570.353 166.846 573.081C166.646 573.775 166.336 574.432 165.928 575.028C165.243 575.509 165.928 580.808 165.928 580.808C165.928 580.808 187.788 582.604 189.638 580.808C190.39 580.109 190.202 578.41 189.676 576.448C188.836 573.602 187.718 570.845 186.336 568.218C185.065 565.858 185.659 562.829 185.659 562.829V560.574C187.126 560.807 188.081 560.942 188.081 560.942C188.081 560.942 190.804 558.687 189.638 556.59C188.472 554.493 191.775 542.783 191.775 542.783C191.775 542.783 195.468 529.532 195.468 528.209C195.468 526.886 200.327 509.666 200.327 509.666C200.327 509.666 207.519 479.195 204.021 464.809C204.021 464.809 207.128 461.216 206.737 460.299C206.345 459.382 205.443 455.376 206.774 453.677C208.106 451.978 213.74 430.775 215.297 427.182C216.012 425.521 217.802 420.936 219.517 416.464C227.257 415.306 236.48 413.172 236.48 413.172C236.48 413.172 235.103 407.316 234.08 401.333L234.923 397.222L235.224 395.801C235.919 396.483 236.537 397.24 237.067 398.056L238.616 390.487C238.616 390.487 238.789 390.224 239.083 389.736C240.895 386.902 247.5 376.718 250.667 373.628C254.36 369.968 252.036 353.688 250.667 351.989Z" fill="url(#paint0_linear)"/>
<path d="M203.509 225.362H182.071V249.414H203.509V225.362Z" fill="#925978"/>
<path opacity="0.1" d="M203.509 225.362H182.071V249.414H203.509V225.362Z" fill="black"/>
<path d="M150.658 432.624C150.658 432.624 156.111 441.268 154.795 443.523C153.478 445.777 144.467 453.106 144.467 453.106L141.804 435.067L150.658 432.624Z" fill="#FF6484"/>
<path d="M133.732 460.434L137.712 459.87H141.789C141.789 459.87 147.205 456.759 146.896 450.287C146.588 443.816 146.896 437.509 146.896 437.509L133.732 460.434Z" fill="#575988"/>
<path opacity="0.1" d="M133.732 460.434L137.712 459.87H141.789C141.789 459.87 147.205 456.759 146.896 450.287C146.588 443.816 146.896 437.509 146.896 437.509L133.732 460.434Z" fill="black"/>
<path d="M141.789 372.305L119.222 397.109C119.222 397.109 116.589 413.457 114.708 414.773C112.828 416.088 106.855 432.624 106.855 432.624C106.855 432.624 95.0223 460.998 112.03 464.192C129.038 467.387 137.696 459.87 137.696 459.87L152.139 433.751C152.139 433.751 168.32 412.518 170.389 414.773C172.457 417.028 173.774 420.598 172.833 422.853L173.713 435.818V456.112C173.713 456.112 171.397 465.32 173.713 466.259C176.03 467.199 173.713 470.769 173.713 470.769C173.713 470.769 174.586 474.903 174.744 476.218C174.902 477.534 174.744 481.292 174.744 481.292L173.992 501.586L172.487 531.651C172.487 531.651 170.795 534.094 172.111 535.785C173.428 537.476 172.863 541.422 172.487 542.174C172.111 542.926 171.923 549.127 171.923 549.127C171.923 549.127 166.469 554.952 170.795 556.455C175.12 557.958 187.72 559.837 187.72 559.837C187.72 559.837 190.353 557.583 189.225 555.516C188.096 553.449 191.293 541.798 191.293 541.798C191.293 541.798 194.866 528.645 194.866 527.329C194.866 526.014 199.568 508.914 199.568 508.914C199.568 508.914 206.526 478.661 203.141 464.38C203.141 464.38 206.15 460.81 205.774 459.87C205.398 458.931 204.517 454.985 205.774 453.294C207.03 451.603 212.544 430.557 214.048 426.987C215.553 423.416 221.947 406.129 221.947 406.129V374.185L141.789 372.305Z" fill="#575988"/>
<path d="M209.159 258.997L196.175 283.508L192.753 289.957L192.233 290.941L158.759 292.257C158.759 292.257 157.804 290.145 156.45 286.868C154.11 281.193 150.575 272.008 148.792 264.258C148.351 262.404 148.024 260.524 147.814 258.629C147.318 253.939 148.07 250.594 151.079 250.308C151.839 250.239 152.605 250.318 153.335 250.541C155.427 251.159 157.618 251.371 159.79 251.165C167.733 250.203 170.058 241.822 170.449 233.945C170.449 233.389 170.501 232.833 170.509 232.284C170.509 230.578 170.509 228.924 170.396 227.406C170.245 224.831 169.949 222.266 169.508 219.724C171.497 218.752 173.578 217.984 175.722 217.432C182.071 215.808 191.015 215.853 191.135 228.932C191.122 231.83 191.409 234.722 191.993 237.561C192.331 239.179 192.875 240.747 193.61 242.228C195.814 246.46 198.876 246.918 200.312 246.866C200.578 246.866 200.843 246.838 201.102 246.783L209.159 258.997Z" fill="#FFC5CB"/>
<path opacity="0.1" d="M175.744 273.188C176.208 274.52 176.444 275.919 176.444 277.329C176.586 278.814 176.551 280.31 176.339 281.787C176.125 283.28 175.383 284.648 174.248 285.642" fill="black"/>
<path opacity="0.1" d="M185.215 239.47C196.328 239.47 205.337 230.468 205.337 219.364C205.337 208.259 196.328 199.257 185.215 199.257C174.102 199.257 165.093 208.259 165.093 219.364C165.093 230.468 174.102 239.47 185.215 239.47Z" fill="black"/>
<path d="M205.33 218.612C205.331 222.653 204.114 226.6 201.837 229.939C199.559 233.278 196.328 235.853 192.563 237.33C188.799 238.806 184.677 239.114 180.734 238.214C176.792 237.314 173.213 235.247 170.464 232.284C170.288 232.105 170.123 231.917 169.967 231.72C167.849 229.264 166.358 226.331 165.62 223.174C164.882 220.017 164.919 216.728 165.729 213.588C166.539 210.448 168.097 207.55 170.27 205.143C172.443 202.735 175.168 200.888 178.21 199.76C181.252 198.632 184.523 198.256 187.742 198.665C190.961 199.073 194.033 200.254 196.697 202.106C199.36 203.958 201.536 206.426 203.038 209.301C204.54 212.175 205.324 215.369 205.322 218.612H205.33Z" fill="#FFC5CB"/>
<path opacity="0.1" d="M152.914 268.768C152.914 268.768 160.06 287.371 175.105 284.365C175.105 284.365 190.293 285.552 198.989 274.405C207.684 263.259 208.203 338.294 208.203 338.294L204.818 388.09C204.818 388.09 180.574 402.559 170.043 400.679C159.511 398.8 154.434 393.163 154.434 393.163C154.434 393.163 143.338 382.828 140.329 381.513C137.32 380.198 141.646 316.121 141.646 316.121L145.219 292.069L152.914 268.768Z" fill="black"/>
<path d="M152.914 267.265C152.914 267.265 160.06 285.868 175.105 282.861C175.105 282.861 190.293 284.049 198.989 272.902C207.684 261.756 208.203 336.791 208.203 336.791L204.818 386.586C204.818 386.586 180.574 401.055 170.043 399.176C159.511 397.297 154.434 391.66 154.434 391.66C154.434 391.66 143.338 381.325 140.329 380.01C137.32 378.694 141.646 314.618 141.646 314.618L145.219 290.566L152.914 267.265Z" fill="#E8F4FF"/>
<path opacity="0.1" d="M152.162 372.305C152.162 372.305 168.335 390.345 167.395 392.224C166.454 394.103 151.786 377.755 152.162 372.305Z" fill="black"/>
<path opacity="0.1" d="M149.379 327.448C149.379 327.448 154.547 334.664 157.781 333.912L149.379 327.448Z" fill="black"/>
<path opacity="0.1" d="M160.549 250.541C160.549 250.541 160.549 250.759 160.497 251.165C160.324 253.473 159.677 261.838 158.804 271.158C158.315 276.42 157.759 281.937 157.187 286.868C156.254 294.887 155.261 301.306 154.419 302.216C151.974 304.847 152.914 329.65 152.914 329.65V361.031C152.914 361.031 150.853 370.99 149.153 373.245C147.453 375.5 143.301 383.956 139.976 385.083C138.806 385.723 137.755 386.56 136.869 387.556C133.86 390.563 129.602 395.576 126.338 399.529C123.645 402.829 121.651 405.377 121.651 405.377C121.651 405.377 108.487 397.109 114.129 394.666C118.349 392.84 121.839 387.954 123.321 385.647C123.825 384.895 124.073 384.362 124.073 384.362C124.34 382.61 124.74 380.881 125.27 379.19C125.747 377.596 126.449 376.078 127.353 374.681C128.042 373.518 129.16 372.673 130.467 372.328C135.357 371.388 137.802 324.975 137.802 324.975L122.757 292.174L121.253 288.897C121.253 288.897 123.133 269.918 124.073 269.918C125.014 269.918 126.518 265.221 126.518 263.717C126.518 262.214 131.032 258.268 131.032 258.268C131.032 258.268 142.962 251.293 143.714 248.85C144.113 247.565 149.582 245.242 154.674 243.333C159.248 241.619 163.513 240.236 163.513 240.236C166.003 244.025 160.549 250.541 160.549 250.541Z" fill="black"/>
<path d="M159.797 250.541C159.797 250.541 159.797 250.759 159.744 251.165C159.571 253.473 158.925 261.838 158.052 271.158C157.563 276.42 157.006 281.937 156.435 286.868C155.502 294.887 154.509 301.306 153.666 302.216C151.222 304.847 152.162 329.65 152.162 329.65V361.031C152.162 361.031 150.101 370.99 148.401 373.245C146.701 375.5 142.548 383.956 139.224 385.083C138.054 385.723 137.003 386.56 136.117 387.556C133.108 390.563 128.85 395.576 125.586 399.529C122.893 402.829 120.899 405.377 120.899 405.377C120.899 405.377 107.735 397.109 113.377 394.666C117.597 392.84 121.087 387.954 122.569 385.647C123.073 384.895 123.321 384.362 123.321 384.362C123.588 382.61 123.988 380.881 124.517 379.19C124.995 377.596 125.697 376.078 126.601 374.681C127.289 373.518 128.408 372.673 129.715 372.328C134.605 371.388 137.05 324.975 137.05 324.975L122.005 292.174L120.5 288.897C120.5 288.897 122.381 269.918 123.321 269.918C124.262 269.918 125.766 265.221 125.766 263.717C125.766 262.214 130.279 258.268 130.279 258.268C130.279 258.268 142.21 251.293 142.962 248.85C143.361 247.565 148.83 245.242 153.922 243.333C158.496 241.619 162.761 240.236 162.761 240.236C165.251 244.025 159.797 250.541 159.797 250.541Z" fill="#FF6484"/>
<path opacity="0.1" d="M234.599 293.715L218.359 312.739C218.359 312.739 232.463 385.835 230.77 389.217C230.641 389.498 230.558 389.797 230.522 390.104C230.348 391.856 230.381 393.622 230.62 395.365C230.816 397.207 231.116 399.251 231.455 401.288C232.448 407.226 233.779 413.044 233.779 413.044C233.779 413.044 214.785 417.554 208.956 416.99C203.126 416.426 206.511 407.031 207.451 402.709C208.391 398.387 201.057 392.336 201.057 392.336L190.714 349.907C190.714 349.907 189.962 340.511 187.705 336.002C185.448 331.492 187.517 326.606 186.765 320.217C186.231 315.663 189.51 299.382 191.985 289.919C192.926 286.319 193.753 283.711 194.242 283.102C194.263 283.069 194.288 283.038 194.317 283.012C195.822 281.696 194.317 273.992 194.317 273.992C194.317 273.992 197.89 253.698 197.514 252.007C197.304 251.045 198.485 248.685 199.545 246.828C200.35 245.423 201.087 244.303 201.087 244.303C201.087 244.303 208.361 248.91 220.833 258.982L221.962 259.899C235.126 270.61 235.878 292.219 235.878 292.219L234.599 293.715Z" fill="black"/>
<path d="M235.352 293.715L219.111 312.739C219.111 312.739 233.215 385.835 231.523 389.217C231.394 389.498 231.31 389.797 231.274 390.104C231.101 391.856 231.133 393.622 231.372 395.365C231.568 397.207 231.869 399.251 232.207 401.288C233.2 407.226 234.532 413.044 234.532 413.044C234.532 413.044 215.538 417.554 209.708 416.99C203.878 416.426 207.263 407.031 208.203 402.709C209.144 398.387 201.809 392.336 201.809 392.336L191.466 349.907C191.466 349.907 190.714 340.511 188.457 336.002C186.201 331.492 188.269 326.606 187.517 320.217C186.983 315.663 190.263 299.382 192.737 289.919C193.678 286.319 194.505 283.711 194.994 283.102C195.015 283.069 195.041 283.038 195.069 283.012C196.574 281.696 195.069 273.992 195.069 273.992C195.069 273.992 198.642 253.698 198.266 252.007C198.056 251.045 199.237 248.685 200.297 246.828C201.102 245.423 201.839 244.303 201.839 244.303C201.839 244.303 209.114 248.91 221.586 258.982L222.714 259.899C235.878 270.61 236.63 292.219 236.63 292.219L235.352 293.715Z" fill="#FF6484"/>
<path opacity="0.1" d="M201.057 303.907C200.869 305.41 205.571 385.271 210.46 389.969L201.057 303.907Z" fill="black"/>
<path d="M137.651 414.961C132.386 418.268 128.369 409.564 125.616 399.53C124.329 394.817 123.359 389.811 122.607 385.617C122.328 384.053 122.095 382.61 121.9 381.317C121.381 377.965 121.147 375.77 121.147 375.77L126.684 374.658L132.807 373.433L133.559 380.34L133.913 383.475C133.913 383.475 134.876 385.068 136.169 387.556C139.803 394.832 145.971 409.782 137.651 414.961Z" fill="#FFC5CB"/>
<path d="M234.344 390.758L233.027 397.245L232.207 401.326L232.162 401.529C232.162 401.529 215.726 423.792 210.46 414.585C206.436 407.549 216.252 396.012 221.097 390.968C222.601 389.405 223.624 388.466 223.624 388.466L231.274 390.104L234.344 390.758Z" fill="#FFC5CB"/>
<path d="M189.209 579.568C187.419 581.349 166.266 579.568 166.266 579.568C166.266 579.568 165.604 574.306 166.266 573.833C166.665 573.239 166.965 572.584 167.154 571.893C168.124 569.15 169.411 564.377 169.275 563.22C169.087 561.626 169.185 555.237 173.503 555.703C173.503 555.703 179.144 544.241 185.358 558.334V561.716C185.048 563.526 185.275 565.386 186.012 567.068C187.352 569.681 188.435 572.417 189.247 575.238C189.759 577.185 189.909 578.861 189.209 579.568Z" fill="#FF6484"/>
<path d="M189.209 579.568C187.419 581.349 166.266 579.568 166.266 579.568C166.266 579.568 165.604 574.306 166.266 573.833C166.665 573.239 166.965 572.584 167.154 571.894C169.952 570.698 173.759 569.541 176.421 570.548C179.784 571.826 185.99 574.066 189.209 575.238C189.759 577.185 189.909 578.861 189.209 579.568Z" fill="#E8F4FF"/>
<path opacity="0.1" d="M170.404 233.945C170.938 236.095 171.675 238.267 171.705 240.462C171.75 243.468 170.449 246.37 169.065 249.076C167.485 252.172 165.702 255.494 166.229 258.929C166.514 260.231 166.888 261.512 167.349 262.763C168.518 266.793 168.137 271.115 166.281 274.879C165.048 277.367 162.52 279.772 159.82 278.968C159.616 276.315 159.286 273.421 158.029 271.158C157.533 270.24 156.848 269.436 156.021 268.798C154.065 267.295 151.364 266.979 149.589 265.281C149.27 264.975 148.99 264.632 148.754 264.258C147.889 262.801 147.52 261.103 147.701 259.418C147.701 259.162 147.754 258.907 147.799 258.666C148.161 256.837 148.774 255.067 149.619 253.405C150.086 252.398 150.575 251.391 151.064 250.398C152.195 248.152 153.146 245.82 153.907 243.423C158.481 241.71 162.746 240.327 162.746 240.327C165.251 244.085 159.797 250.631 159.797 250.631C159.797 250.631 159.797 250.849 159.744 251.255C167.688 250.203 170.042 241.822 170.404 233.945Z" fill="black"/>
<path opacity="0.1" d="M181.672 205.669C179.476 206.368 177.377 207.766 176.406 209.87C175.368 212.2 175.902 214.891 175.654 217.432C175.598 217.989 175.492 218.54 175.338 219.078C174.406 222.197 171.479 224.399 170.328 227.406C170.246 227.631 170.17 227.857 170.103 228.097C169.799 229.281 169.745 230.515 169.945 231.72C167.256 228.593 165.595 224.714 165.188 220.61C164.781 216.507 165.647 212.378 167.67 208.784C169.692 205.189 172.772 202.304 176.492 200.518C180.211 198.733 184.391 198.135 188.463 198.804C192.535 199.474 196.302 201.38 199.253 204.262C202.204 207.144 204.196 210.864 204.958 214.917C205.721 218.969 205.217 223.158 203.515 226.914C201.813 230.671 198.996 233.813 195.445 235.914C196.296 233.381 197.191 230.856 197.883 228.27C199.508 222.19 199.786 215.162 195.957 210.164C194.295 208.078 192.047 206.536 189.502 205.736C186.957 204.935 184.23 204.911 181.672 205.669Z" fill="black"/>
<path opacity="0.1" d="M220.969 266.528C220.307 268.926 218.622 271.557 216.139 271.444C214.958 271.391 213.883 270.692 212.702 270.58C211.024 270.429 209.437 271.512 208.429 272.835C207.515 274.255 206.72 275.748 206.052 277.299C204.202 280.892 200.576 284.124 196.574 283.56L196.16 283.485C195.75 283.403 195.349 283.28 194.964 283.117C191.376 281.614 189.435 276.999 189.563 272.917C189.714 268.265 191.662 263.86 192.301 259.245C192.895 254.991 192.354 250.654 192.813 246.385C192.969 244.976 193.22 243.58 193.565 242.206C195.769 246.437 198.831 246.896 200.267 246.843C201.072 245.438 201.809 244.318 201.809 244.318C201.809 244.318 209.084 248.925 221.556 258.997C221.839 261.522 221.639 264.078 220.969 266.528Z" fill="black"/>
<path d="M192.61 183.33C196.514 184.736 199.801 187.6 203.803 188.689C205.118 188.948 206.417 189.284 207.692 189.697C212.205 191.508 213.845 196.95 214.71 201.723C216.267 210.336 217.388 219.627 223.135 226.233C224.158 227.406 225.347 228.533 225.821 229.992C226.295 231.45 225.655 233.464 224.128 233.787C226.746 234.892 228.032 238.124 227.483 240.913C226.934 243.701 224.895 246.001 222.496 247.535C221.375 248.286 220.021 249.038 219.87 250.361C219.861 251.071 220.024 251.772 220.344 252.405C221.895 256.424 222.119 260.833 220.984 264.988C220.322 267.378 218.637 270.016 216.154 269.903C214.973 269.851 213.898 269.152 212.724 269.039C211.039 268.889 209.46 269.971 208.444 271.294C207.528 272.713 206.733 274.206 206.067 275.758C204.224 279.351 200.598 282.583 196.589 282.02C191.978 281.366 189.435 276.006 189.578 271.376C189.721 266.746 191.684 262.319 192.324 257.704C192.91 253.45 192.369 249.113 192.835 244.844C193.512 238.59 196.303 232.78 197.928 226.707C199.553 220.634 199.823 213.599 195.995 208.6C194.334 206.51 192.086 204.964 189.539 204.16C186.992 203.356 184.263 203.332 181.702 204.09C179.498 204.789 177.407 206.187 176.436 208.292C175.173 211.133 176.248 214.516 175.361 217.5C174.36 220.852 171.05 223.152 170.095 226.519C168.982 230.57 171.6 234.689 171.675 238.883C171.72 241.89 170.419 244.791 169.042 247.497C167.455 250.594 165.672 253.916 166.206 257.351C166.488 258.653 166.86 259.934 167.319 261.184C168.513 265.235 168.142 269.585 166.281 273.376C165.048 275.864 162.475 278.269 159.82 277.465C159.526 273.744 159 269.55 156.021 267.295C154.057 265.792 151.357 265.476 149.582 263.77C148.851 262.99 148.302 262.059 147.973 261.043C147.644 260.027 147.544 258.951 147.679 257.892C147.961 255.777 148.61 253.727 149.597 251.834C151.756 247.174 154.381 242.529 154.682 237.403C155.133 229.668 150.168 222.047 151.974 214.5C153.478 208.187 159.316 203.76 161.527 197.656C162.708 194.379 162.896 190.538 165.288 188.021C168.749 184.405 174.037 185.63 178.415 184.54C180.446 184.029 182.176 182.977 184.312 182.624C187.093 182.137 189.952 182.38 192.61 183.33Z" fill="#925978"/>
<path opacity="0.1" d="M139.201 343.728C139.201 343.728 139.201 360.64 139.201 368.156C139.201 369.164 139.201 370.208 139.141 371.261C138.885 378.025 137.854 385.068 137.854 385.068C136.651 383.297 135.202 381.705 133.552 380.34C129.948 377.507 126.879 377.868 124.57 379.16C123.572 379.738 122.669 380.466 121.892 381.317C121.373 377.965 121.14 375.77 121.14 375.77L126.676 374.658C127.365 373.495 128.483 372.65 129.79 372.305C134.68 371.366 137.125 324.953 137.125 324.953L122.08 292.151V290.551L127.165 282.47C135.628 275.142 137.696 285.665 137.696 285.665C137.696 285.665 139.201 314.227 139.201 314.979C139.201 315.73 139.201 343.728 139.201 343.728Z" fill="black"/>
<path d="M137.697 342.052C137.697 342.052 137.697 358.964 137.697 366.48C137.697 367.487 137.697 368.532 137.636 369.585C137.381 376.349 136.35 383.392 136.35 383.392C125.819 368.547 118.387 382.34 118.387 382.34L116.04 376.064C115.141 375.294 114.379 374.379 113.783 373.358C109.202 365.781 112.008 352.575 112.008 352.575C113.61 331.905 120.561 308.605 120.561 308.605V288.874L125.661 280.794C134.123 273.466 137.697 283.989 137.697 283.989C137.697 283.989 137.697 312.551 137.697 313.302C137.697 314.054 137.697 342.052 137.697 342.052Z" fill="#FF6484"/>
<path opacity="0.1" d="M137.651 368.833C137.396 375.598 136.365 382.64 136.365 382.64C125.834 367.796 118.402 381.588 118.402 381.588L116.055 375.312C115.156 374.542 114.394 373.628 113.798 372.606C118.703 369.908 129.512 364.932 137.651 368.833Z" fill="black"/>
<path d="M137.651 369.585C137.396 376.349 136.365 383.392 136.365 383.392C125.834 368.547 118.402 382.34 118.402 382.34L116.055 376.064C115.156 375.294 114.394 374.379 113.798 373.358C118.703 370.659 129.512 365.684 137.651 369.585Z" fill="#FF6484"/>
<path opacity="0.1" d="M137.651 369.585C137.396 376.349 136.365 383.392 136.365 383.392C125.834 368.547 118.402 382.34 118.402 382.34L116.055 376.064C115.156 375.294 114.394 374.379 113.798 373.358C118.703 370.659 129.512 365.684 137.651 369.585Z" fill="white"/>
<path opacity="0.1" d="M123.404 318.752C123.404 318.752 126.789 337.355 130.174 342.804C133.559 348.253 123.404 318.752 123.404 318.752Z" fill="black"/>
<path opacity="0.1" d="M114.738 350.32C114.738 350.32 116.807 361.595 121.132 362.91C125.458 364.225 114.738 350.32 114.738 350.32Z" fill="black"/>
<path opacity="0.1" d="M231.274 390.104L234.344 390.758L233.027 397.245C232.527 396.586 231.974 395.97 231.372 395.403C228.586 392.748 224.942 391.175 221.097 390.968C219.425 390.861 217.747 390.967 216.102 391.284C216.818 388.731 217.291 386.116 217.516 383.475C217.65 382.482 217.485 381.472 217.042 380.573C215.538 378.506 214.785 359.34 214.785 359.34C214.785 359.34 216.102 349.569 216.854 347.69C217.606 345.81 213.469 336.205 213.657 333.303C213.845 330.402 216.102 305.41 216.102 304.095C216.102 302.78 220.991 277.036 231.147 286.807L235.096 292.257L235.352 293.715L219.111 312.739C219.111 312.739 233.215 385.835 231.523 389.217C231.394 389.498 231.31 389.797 231.274 390.104Z" fill="black"/>
<path d="M248.275 373.809C245.206 376.875 238.819 386.992 237.067 389.803L236.615 390.555L235.111 398.071C235.111 398.071 229.845 389.052 217.621 391.307C218.337 388.754 218.811 386.139 219.036 383.497C219.169 382.505 219.004 381.495 218.562 380.596C217.057 378.529 216.305 359.362 216.305 359.362C216.305 359.362 217.621 349.591 218.374 347.712C219.126 345.833 214.989 336.227 215.177 333.326C215.365 330.425 217.621 305.433 217.621 304.117C217.621 302.802 222.511 277.059 232.666 286.83L236.615 292.279L239.624 309.379L245.454 339.068C245.454 339.068 246.959 350.719 248.275 352.41C249.591 354.101 251.833 370.238 248.275 373.809Z" fill="#FF6484"/>
<path opacity="0.1" d="M237.051 389.052L236.6 389.803L235.096 397.32C235.096 397.32 229.83 388.3 217.606 390.555C218.322 388.002 218.796 385.387 219.02 382.746C223.21 383.009 231.65 384.189 237.051 389.052Z" fill="black"/>
<path d="M237.051 389.803L236.6 390.555L235.096 398.071C235.096 398.071 229.83 389.052 217.606 391.307C218.322 388.754 218.796 386.139 219.02 383.497C223.21 383.76 231.65 384.94 237.051 389.803Z" fill="#FF6484"/>
<path opacity="0.1" d="M237.051 389.803L236.6 390.555L235.096 398.071C235.096 398.071 229.83 389.052 217.606 391.307C218.322 388.754 218.796 386.139 219.02 383.497C223.21 383.76 231.65 384.94 237.051 389.803Z" fill="white"/>
<path opacity="0.1" d="M224.752 336.979C224.752 336.979 237.54 336.821 239.421 343.473C241.302 350.125 224.752 336.979 224.752 336.979Z" fill="black"/>
<path opacity="0.1" d="M222.308 355.77C222.308 355.77 243.934 354.83 242.994 364.225C242.054 373.621 222.308 355.77 222.308 355.77Z" fill="black"/>
<path opacity="0.1" d="M223.624 370.238C223.624 370.238 225.317 369.863 226.445 373.809C227.573 377.755 223.624 370.238 223.624 370.238Z" fill="black"/>
<path opacity="0.1" d="M179.822 462.125C179.822 462.125 184.974 460.622 187.344 462.125C189.713 463.629 179.822 462.125 179.822 462.125Z" fill="black"/>
<path opacity="0.1" d="M180.747 467.575C180.747 467.575 192.971 467.763 194.099 469.078C195.227 470.393 180.747 467.575 180.747 467.575Z" fill="black"/>
<g opacity="0.1">
<path opacity="0.1" d="M154.712 235.148C155.073 228.999 152.042 222.934 151.665 216.913C151.274 222.986 154.358 229.105 154.674 235.298C154.69 235.249 154.703 235.199 154.712 235.148Z" fill="black"/>
<path opacity="0.1" d="M169.072 245.31C167.507 248.361 165.762 251.624 166.214 255.013C166.537 252.435 167.861 249.94 169.072 247.572C170.449 244.866 171.75 241.995 171.712 238.959C171.712 238.628 171.69 238.297 171.645 237.966C171.381 240.537 170.253 242.987 169.072 245.31Z" fill="black"/>
<path opacity="0.1" d="M224.113 231.562C224.671 231.798 225.181 232.135 225.617 232.555C225.993 231.766 226.063 230.866 225.813 230.029C225.813 230.029 225.813 229.962 225.775 229.924C225.669 230.32 225.459 230.681 225.167 230.969C224.875 231.257 224.511 231.462 224.113 231.562Z" fill="black"/>
<path opacity="0.1" d="M166.281 271.113C165.048 273.601 162.475 276.007 159.82 275.202C159.526 271.482 159 267.288 156.021 265.033C154.058 263.529 151.357 263.214 149.589 261.515C148.53 260.439 147.872 259.033 147.724 257.531C147.724 257.652 147.686 257.772 147.679 257.892C147.543 258.952 147.644 260.029 147.975 261.045C148.305 262.061 148.856 262.992 149.589 263.77C151.357 265.476 154.058 265.814 156.021 267.295C159.03 269.55 159.526 273.744 159.82 277.465C162.475 278.269 165.048 275.864 166.281 273.376C167.567 270.735 168.14 267.805 167.944 264.875C167.801 267.043 167.237 269.162 166.281 271.113Z" fill="black"/>
<path opacity="0.1" d="M227.468 238.688C226.919 241.469 224.88 243.777 222.488 245.31C221.36 246.061 220.006 246.813 219.855 248.136C219.821 248.65 219.909 249.165 220.111 249.639C220.728 248.777 221.543 248.075 222.488 247.595C224.88 246.092 226.919 243.754 227.468 240.973C227.615 240.165 227.615 239.338 227.468 238.53C227.471 238.583 227.471 238.635 227.468 238.688Z" fill="black"/>
<path opacity="0.1" d="M220.969 262.763C220.307 265.153 218.629 267.791 216.139 267.678C214.958 267.626 213.883 266.927 212.709 266.814C211.024 266.664 209.445 267.746 208.429 269.069C207.514 270.487 206.721 271.981 206.06 273.534C204.209 277.126 200.583 280.358 196.581 279.795C192.579 279.231 190.014 274.924 189.623 270.707C189.623 270.94 189.571 271.173 189.571 271.414C189.42 276.067 191.963 281.403 196.581 282.057C200.583 282.621 204.209 279.389 206.06 275.796C206.72 274.243 207.513 272.749 208.429 271.331C209.445 269.986 211.024 268.904 212.709 269.076C213.883 269.189 214.966 269.888 216.139 269.941C218.629 270.054 220.307 267.415 220.969 265.025C221.551 262.907 221.777 260.708 221.638 258.516C221.57 259.952 221.345 261.376 220.969 262.763Z" fill="black"/>
<path opacity="0.1" d="M195.98 208.66C197.886 211.286 198.937 214.436 198.988 217.68C199.184 213.591 198.417 209.562 195.98 206.36C194.319 204.27 192.071 202.724 189.524 201.92C186.977 201.116 184.248 201.092 181.687 201.851C179.483 202.55 177.392 203.948 176.421 206.052C175.15 208.893 176.226 212.283 175.338 215.26C174.338 218.612 171.028 220.912 170.073 224.279C169.794 225.359 169.728 226.482 169.877 227.586C169.917 227.234 169.983 226.885 170.073 226.542C170.998 223.174 174.308 220.874 175.338 217.522C176.226 214.516 175.15 211.156 176.421 208.315C177.362 206.21 179.43 204.812 181.687 204.113C184.252 203.359 186.983 203.389 189.53 204.199C192.078 205.01 194.324 206.563 195.98 208.66Z" fill="black"/>
</g>
<g opacity="0.8">
<path opacity="0.8" d="M427.164 496.843C460.483 496.843 487.493 469.855 487.493 436.562C487.493 403.27 460.483 376.282 427.164 376.282C393.845 376.282 366.834 403.27 366.834 436.562C366.834 469.855 393.845 496.843 427.164 496.843Z" fill="#1769FF"/>
<path opacity="0.8" d="M409.449 409.241C411.841 409.221 414.229 409.453 416.572 409.932C418.54 410.315 420.414 411.081 422.086 412.187C423.619 413.241 424.846 414.68 425.644 416.359C426.552 418.379 426.987 420.579 426.915 422.793C427 425.225 426.344 427.626 425.035 429.677C423.618 431.647 421.702 433.204 419.483 434.187C422.515 434.938 425.181 436.742 427.006 439.276C428.469 441.646 429.316 444.344 429.47 447.124C429.623 449.904 429.079 452.679 427.886 455.195C426.86 457.161 425.377 458.852 423.56 460.126C421.678 461.433 419.576 462.393 417.355 462.96C415.019 463.569 412.615 463.877 410.201 463.877H383.722V409.241H409.449ZM407.944 431.354C409.816 431.434 411.663 430.907 413.21 429.85C414.594 428.848 415.283 427.19 415.278 424.875C415.319 423.788 415.081 422.709 414.586 421.74C414.154 420.951 413.521 420.29 412.751 419.824C411.936 419.349 411.041 419.026 410.111 418.869C409.085 418.691 408.045 418.603 407.004 418.606H395.72V431.384L407.944 431.354ZM408.636 454.534C409.769 454.539 410.898 454.423 412.006 454.188C413.012 453.988 413.972 453.6 414.835 453.046C415.663 452.499 416.336 451.748 416.79 450.866C417.321 449.769 417.579 448.559 417.543 447.341C417.543 444.545 416.753 442.538 415.166 441.328C413.329 440.048 411.12 439.414 408.884 439.524H395.796V454.556L408.636 454.534ZM444.668 453.384C446.303 454.967 448.65 455.759 451.709 455.759C453.732 455.809 455.721 455.225 457.396 454.09C458.735 453.296 459.762 452.068 460.307 450.61H469.876C468.341 455.356 465.991 458.748 462.827 460.787C459.369 462.916 455.362 463.984 451.303 463.862C448.427 463.9 445.57 463.39 442.885 462.358C440.479 461.428 438.309 459.978 436.529 458.112C434.754 456.216 433.384 453.978 432.505 451.535C431.538 448.835 431.059 445.984 431.09 443.117C431.064 440.295 431.556 437.493 432.542 434.849C433.449 432.391 434.852 430.145 436.664 428.251C438.475 426.356 440.657 424.854 443.073 423.837C445.678 422.738 448.483 422.19 451.31 422.229C454.362 422.158 457.384 422.829 460.119 424.183C462.555 425.434 464.664 427.235 466.28 429.444C467.918 431.7 469.101 434.253 469.763 436.961C470.479 439.836 470.733 442.807 470.515 445.762H441.93C442.08 449.265 442.976 451.821 444.608 453.391L444.668 453.384ZM456.96 432.579C455.656 431.151 453.677 430.437 451.025 430.437C449.533 430.384 448.051 430.686 446.699 431.316C445.633 431.832 444.693 432.577 443.946 433.496C443.284 434.308 442.788 435.243 442.487 436.247C442.232 437.094 442.065 437.966 441.99 438.847H459.653C459.151 436.096 458.243 434.007 456.93 432.579H456.96ZM440.095 411.999H462.188V418.125H440.095V411.999Z" fill="white"/>
</g>
<g opacity="0.8">
<path opacity="0.8" d="M699.788 471.867C699.788 472.43 699.788 473.001 699.788 473.573C699.377 488.003 693.798 501.807 684.065 512.476C674.331 523.144 661.09 529.97 646.748 531.711C644.339 531.998 641.915 532.141 639.489 532.14C627.557 532.14 615.892 528.604 605.971 521.98C596.05 515.356 588.317 505.941 583.751 494.926C579.186 483.91 577.991 471.79 580.32 460.096C582.648 448.402 588.395 437.661 596.833 429.231C605.271 420.801 616.021 415.061 627.724 412.736C639.427 410.41 651.558 411.605 662.581 416.169C673.605 420.733 683.027 428.46 689.655 438.374C696.283 448.288 699.82 459.944 699.818 471.867H699.788Z" fill="#B3BBC6"/>
<path opacity="0.8" d="M699.758 473.573C699.347 488.003 693.768 501.807 684.035 512.476C674.301 523.144 661.06 529.97 646.718 531.711L597.462 495.099L603.615 455.263L627.973 456.766L641.829 468.371L651.683 452.324L668.232 466.064L677.131 472.43V452.339L699.563 473.084C699.615 473.25 699.698 473.407 699.758 473.573Z" fill="#666C76"/>
<path opacity="0.8" d="M635.141 473.347C635.141 460.569 627.28 451.911 612.311 451.911H597.53V494.919H612.619C627.153 494.919 635.141 486.125 635.141 473.347ZM624.407 473.415C624.407 482.637 619.668 486.628 612.063 486.628H608.189V460.201H612.063C619.359 460.201 624.407 464.373 624.407 473.415ZM677.62 494.919V451.911H667.698V475.963L651.856 451.911H641.498V494.911H651.42V469.176L668.382 494.911H677.62V494.919Z" fill="white"/>
</g>
<path d="M654.429 407.737C653.676 406.234 646.658 396.177 646.658 396.177L646.447 395.275L644.146 385.015L643.988 384.264C645.492 383.881 646.575 383.407 646.914 382.813C648.569 379.919 645.515 376.402 645.515 376.402L644.875 361.189L643.22 324.359C643.22 324.359 639.783 312.032 639.271 309.146C638.76 306.26 634.051 300.216 634.051 300.216C634.051 300.216 635.066 297.21 633.795 295.06C632.524 292.911 629.718 282.861 629.718 282.861L627.303 255.051L626.152 227.692C627.306 227.683 628.458 227.791 629.59 228.015C629.755 228.15 629.665 227.812 629.424 227.203C629.483 227.213 629.539 227.233 629.59 227.263C629.981 227.579 628.935 225.226 627.807 222.829L627.672 222.55C628.213 220.589 630.455 212.644 632.012 209.773C633.171 207.653 630.944 193.019 629.244 183.022C629.123 182.308 629.003 181.624 628.89 180.963C631.651 176.137 634.818 170.665 634.818 170.665C634.818 170.665 642.837 147.786 646.147 137.849C649.456 127.913 646.147 102.147 646.147 102.147C646.147 102.147 646.147 100.884 645.966 98.9146C645.447 93.5931 643.461 83.183 635.833 79.1392C625.392 73.6072 622.083 66.82 622.083 66.82C622.083 66.82 609.054 54.9743 607.406 58.9504L607.294 58.7249C606.32 56.7369 605.605 54.6329 605.165 52.4638C605.12 52.2384 605.082 52.0129 605.044 51.7949C606.709 50.4816 608.156 48.9139 609.332 47.1498C609.332 47.4805 609.28 47.8112 609.257 48.142C609.257 48.3524 609.257 48.5629 609.257 48.7658V49.0514C609.249 49.1891 609.249 49.3271 609.257 49.4648C609.257 49.5475 609.257 49.6302 609.257 49.7129C609.739 49.7599 610.224 49.6593 610.647 49.4243C611.07 49.1894 611.412 48.8312 611.627 48.3975C612.035 47.5299 612.306 46.6045 612.431 45.6541C612.871 43.63 613.679 41.7039 614.816 39.9717C615.929 38.2655 617.419 36.5518 617.614 34.6051C617.644 34.3203 617.644 34.0331 617.614 33.7482C617.517 32.7561 617.05 31.8316 616.907 30.8469C616.846 30.3477 616.846 29.8429 616.907 29.3437C616.907 29.0505 616.975 28.7574 617.02 28.4718C617.065 28.1862 617.14 27.7201 617.193 27.2992C617.246 26.8783 617.291 26.6453 617.328 26.3146V26.277C617.434 25.4108 617.434 24.5351 617.328 23.6689C617.264 22.8682 617.01 22.0945 616.586 21.412C616.162 20.7296 615.581 20.1582 614.891 19.7453C614.139 19.362 613.274 19.2417 612.522 18.8584C610.536 17.8437 609.904 15.4084 608.76 13.5294C607.948 12.2767 606.849 11.2354 605.554 10.4916C604.259 9.74791 602.805 9.32316 601.313 9.25257C598.304 9.13231 595.356 10.4477 592.399 10.0042C590.511 9.70355 588.774 8.68134 586.863 8.54604C584.072 8.35062 581.56 10.0493 579.296 11.6803C577.693 12.8303 575.986 14.1307 575.459 16.0248C575.038 17.5731 575.459 19.3545 574.587 20.7074C574.022 21.5868 572.999 22.0904 572.367 22.9623C571.845 23.6557 571.58 24.5082 571.615 25.3751C571.615 25.4502 571.615 25.5329 571.615 25.6156C571.615 25.6983 571.615 25.8862 571.615 26.0215C571.668 26.6002 571.773 27.1865 571.871 27.7577C571.874 27.8178 571.874 27.878 571.871 27.9381C572.097 29.5241 571.585 30.6365 571.013 32.1848C570.77 32.8377 570.632 33.5254 570.607 34.2218C570.607 34.2218 570.607 34.2894 570.607 34.327C570.607 34.3646 570.607 34.4247 570.607 34.4773C570.599 34.6225 570.599 34.768 570.607 34.9133C570.675 35.4537 570.912 35.9589 571.284 36.3564C571.471 36.0495 571.729 35.7918 572.036 35.6048C572.036 35.8303 572.036 36.0557 572.036 36.2887V36.3338C572.038 38.9834 572.572 41.6057 573.605 44.0457C574.639 46.4857 576.152 48.6939 578.054 50.5397C578.054 50.7576 577.994 50.9831 577.964 51.2011C577.641 53.456 577.212 55.9364 576.693 58.3115L576.512 59.0632H572.751C572.751 59.0632 573.39 56.2972 567.147 59.6945C560.903 63.0919 553.261 64.7229 552.102 65.3468C550.944 65.9707 536.824 76.9219 536.824 76.9219C536.824 76.9219 524.593 83.9572 524.977 96.0284L523.578 109.558L522.562 134.828C522.562 134.828 520.651 156.332 522.562 159.346C524.473 162.36 527.783 180.219 527.143 182.481C526.684 184.12 531.295 195.635 534.5 202.347C533.64 203.253 532.843 204.217 532.115 205.233C532.115 205.233 530.837 210.269 530.837 210.772C530.837 210.772 530.837 210.825 530.897 210.855C528.076 213.711 523.578 218.409 523.578 219.446C523.578 220.949 524.473 222.265 523.074 222.175C521.674 222.084 521.629 223.723 521.712 224.723C521.795 225.722 520.012 224.227 520.14 226.106C520.268 227.985 507.149 257.539 507.149 257.539C507.149 257.539 501.169 272 498.874 274.39C496.58 276.781 493.398 287.341 493.654 291.234C493.909 295.128 494.037 296.27 493.014 296.27C491.991 296.27 489.96 299.788 489.96 299.788L479.903 330.718C479.903 330.718 476.969 340.271 476.082 340.151C475.194 340.03 473.193 356.566 473.193 356.566C473.193 356.566 471.034 361.467 470.65 361.467C470.575 361.467 470.929 361.82 471.583 362.376L471.147 362.745C470.201 363.554 469.209 364.306 468.176 365C468.138 365 462.361 360.993 458.396 361.369C454.432 361.745 446.301 362.745 442.216 359.866C439.959 358.257 435.198 356.859 431.369 356.799C428.315 356.754 425.84 357.551 425.667 359.866C425.283 365.015 439.546 374.703 439.546 374.703C439.546 374.703 454.59 378.972 457.501 382.971C460.412 386.97 472.441 393.028 472.441 393.028C472.441 393.028 476.059 391.434 477.42 389.833C477.583 389.681 477.711 389.495 477.797 389.289C477.882 389.083 477.923 388.861 477.917 388.638C477.661 386.752 482.882 379.619 482.882 379.619L483.634 376.079C484.003 374.327 484.469 372.193 484.928 370.321C484.988 370.066 485.048 369.815 485.108 369.569C485.705 369.599 486.301 369.507 486.861 369.299C491.954 367.292 492.465 361.783 492.465 361.783L500.085 345.856C500.085 345.856 503.395 336.678 504.411 335.04C505.426 333.401 513.325 316.94 513.325 316.94C513.325 316.94 514.724 309.897 516.003 307.763C517.281 305.628 517.402 300.998 517.402 300.998C517.402 300.998 520.072 293.955 522.878 291.189C524.898 289.019 526.651 286.614 528.098 284.026C528.098 284.026 539.683 265.792 547.581 260.643C547.581 260.643 566.56 237.508 567.704 235.494C568.847 233.479 572.413 228.203 576.73 232.976C581.048 237.748 585.637 243.919 585.637 243.919L593.415 265.04L602.073 292.099C602.073 292.099 606.143 298.631 605.894 300.014C605.646 301.397 612.514 313.723 612.514 313.723C612.514 313.723 615.185 318.233 614.681 320.488C614.177 322.743 616.591 324.998 616.591 324.998L617.344 334.175C617.344 334.175 620.149 343.195 619.382 344.615C618.615 346.036 622.06 354.672 622.06 354.672C622.06 354.672 622.06 362.339 623.331 364.857C624.603 367.375 626.152 377.424 626.024 378.176C625.896 378.927 626.024 385.85 626.024 385.85C626.024 385.85 626.919 385.85 628.341 385.805L628.401 386.556L629.033 394.125L629.093 394.824C628.752 395.088 628.471 395.421 628.27 395.802C628.069 396.184 627.952 396.604 627.927 397.034C627.927 399.079 628.228 405.084 628.484 409.812C628.544 411.067 628.612 412.225 628.672 413.194C628.692 413.533 628.782 413.864 628.935 414.167C629.088 414.47 629.301 414.739 629.562 414.956C629.822 415.174 630.125 415.336 630.451 415.432C630.776 415.528 631.118 415.557 631.455 415.517C635.077 415.06 638.748 415.197 642.325 415.923C646.288 416.832 650.367 417.131 654.421 416.81C654.421 416.81 654.699 413.976 654.745 411.435C654.782 409.812 654.722 408.316 654.429 407.737Z" fill="url(#paint1_linear)"/>
<path d="M644.687 396.53H627.514L627.348 394.509L626.724 386.962L626.257 381.25H641.302L642.22 385.406L644.484 395.629L644.687 396.53Z" fill="#FFAAB0"/>
<path d="M486.838 366.21C486.515 366.525 485.981 368.427 485.439 370.72C484.469 374.748 483.453 379.987 483.453 379.987L482.821 380.137L469.432 383.369C469.432 383.369 462.413 367.337 465.671 366.961C466.819 366.721 467.904 366.239 468.852 365.548C469.926 364.837 470.954 364.059 471.929 363.218C473.712 361.715 475.073 360.317 475.073 360.317C475.073 360.317 487.719 365.33 486.838 366.21Z" fill="#FFAAB0"/>
<path opacity="0.1" d="M486.838 366.21C486.515 366.525 485.981 368.427 485.439 370.72C480.813 370.449 473.817 364.962 471.899 363.203C473.682 361.7 475.043 360.302 475.043 360.302C475.043 360.302 487.718 365.33 486.838 366.21Z" fill="black"/>
<path opacity="0.1" d="M642.212 385.399C638.09 386.511 630.53 386.85 626.716 386.955L626.25 381.242H641.295L642.212 385.399Z" fill="black"/>
<path d="M533.101 209.622C533.101 209.622 523.698 218.89 523.698 220.393C523.698 221.897 524.578 223.197 523.201 223.114C521.825 223.032 521.78 224.655 521.862 225.655C521.945 226.654 520.192 225.151 520.313 227.03C520.433 228.909 507.525 258.351 507.525 258.351C507.525 258.351 501.635 272.759 499.378 275.135C497.121 277.51 493.985 288.04 494.24 291.926C494.496 295.812 494.617 296.932 493.609 296.932C492.601 296.932 490.6 300.442 490.6 300.442L480.7 331.259C480.7 331.259 477.812 340.782 476.939 340.654C476.066 340.526 473.93 357.062 473.93 357.062C473.93 357.062 471.794 361.948 471.418 361.948C471.042 361.948 482.325 371.719 487.342 369.72C492.36 367.721 492.856 362.204 492.856 362.204L500.379 346.419C500.379 346.419 503.643 337.272 504.644 335.641C505.644 334.01 513.422 317.602 513.422 317.602C513.422 317.602 514.799 310.589 516.055 308.462C517.311 306.335 517.432 301.697 517.432 301.697C517.432 301.697 520.065 294.677 522.825 291.926C524.815 289.758 526.54 287.361 527.963 284.786C527.963 284.786 539.374 266.619 547.145 261.485C547.145 261.485 565.823 238.432 566.951 236.426C568.08 234.419 571.593 229.165 575.858 233.923C580.123 238.68 584.629 244.821 584.629 244.821L592.279 265.867L600.802 292.798C600.802 292.798 604.819 299.315 604.563 300.69C604.307 302.066 611.085 314.347 611.085 314.347C611.085 314.347 613.718 318.857 613.214 321.112C612.71 323.367 615.094 325.622 615.094 325.622L615.847 334.769C615.847 334.769 618.607 343.789 617.855 345.164C617.103 346.54 620.488 355.183 620.488 355.183C620.488 355.183 620.488 362.827 621.744 365.33C623 367.833 624.497 377.86 624.377 378.612C624.257 379.363 624.377 386.256 624.377 386.256C624.377 386.256 643.296 386.128 644.928 383.249C646.56 380.37 643.551 376.86 643.551 376.86L642.919 361.7L641.295 324.998C641.295 324.998 637.91 312.716 637.406 309.837C636.902 306.959 632.268 300.946 632.268 300.946C632.268 300.946 633.268 297.939 632.012 295.804C630.756 293.67 628.003 283.658 628.003 283.658L625.618 255.968L624.392 225.783L533.101 209.622Z" fill="#DCE6F2"/>
<path opacity="0.1" d="M627.882 229.037C627.13 228.406 596.288 228.158 595.912 228.158C595.536 228.158 583.877 223.52 583.877 223.52C583.877 223.52 557.924 219.266 553.915 221.145C549.906 223.024 537.486 217.635 537.486 217.635V215.252C537.486 215.252 530.844 212.997 530.844 212.501C530.844 212.005 532.1 206.984 532.1 206.984L532.852 206.721L535.726 205.736L623.865 219.89C623.865 219.89 625.031 222.28 626.122 224.617C627.213 226.955 628.266 229.353 627.882 229.037Z" fill="black"/>
<path d="M627.882 228.285C627.13 227.654 596.288 227.406 595.912 227.406C595.536 227.406 583.877 222.768 583.877 222.768C583.877 222.768 557.924 218.514 553.915 220.393C549.906 222.272 537.486 216.883 537.486 216.883V214.5C537.486 214.5 530.844 212.246 530.844 211.75C530.844 211.253 532.1 206.233 532.1 206.233L532.852 205.969L535.726 204.985L623.865 219.138C623.865 219.138 625.031 221.528 626.122 223.866C627.213 226.203 628.266 228.601 627.882 228.285Z" fill="#F1FAFF"/>
<path opacity="0.1" d="M484.168 375.695L483.416 379.235C483.416 379.235 483.167 379.581 482.784 380.137L469.432 383.369C469.432 383.369 462.413 367.337 465.671 366.961C466.819 366.721 467.904 366.239 468.852 365.548C468.168 370.569 472.065 375.853 472.065 375.853C477.563 379.987 484.168 375.695 484.168 375.695Z" fill="black"/>
<path d="M484.168 376.454L483.416 379.995C483.416 379.995 478.278 387.135 478.526 389.014C478.533 389.236 478.493 389.458 478.408 389.663C478.324 389.869 478.198 390.055 478.037 390.209C476.698 391.803 473.133 393.389 473.133 393.389C473.133 393.389 461.353 387.376 458.464 383.369C455.576 379.363 440.787 375.102 440.787 375.102C440.787 375.102 426.75 365.451 427.126 360.317C427.292 358.062 429.729 357.22 432.738 357.265C436.499 357.31 441.185 358.716 443.419 360.317C447.436 363.196 455.455 362.196 459.344 361.82C463.233 361.444 468.95 365.443 468.95 365.443C467.649 370.704 472.004 376.605 472.004 376.605C477.563 380.746 484.168 376.454 484.168 376.454Z" fill="#575988"/>
<path d="M478.075 390.202C476.736 391.795 473.17 393.381 473.17 393.381C473.17 393.381 461.39 387.368 458.502 383.362C455.613 379.356 440.824 375.094 440.824 375.094C440.824 375.094 426.788 365.443 427.164 360.309C427.329 358.055 429.766 357.213 432.775 357.258C435.032 361.016 438.364 366.24 440.824 367.698C444.841 370.081 452.74 374.59 452.74 374.59C452.74 374.59 465.272 382.483 466.152 383.362C466.874 384.091 474.133 388.886 478.075 390.202Z" fill="#F1FAFF"/>
<path opacity="0.1" d="M644.702 396.523H627.506L627.341 394.501C629.507 392.464 634.148 391.495 634.148 391.495C637.368 390.51 643.303 394.734 644.476 395.606L644.702 396.523Z" fill="black"/>
<path d="M652.653 411.721C652.608 414.254 652.33 417.073 652.33 417.073C648.339 417.395 644.322 417.098 640.422 416.193C636.903 415.468 633.289 415.331 629.725 415.787C629.391 415.827 629.052 415.797 628.729 415.701C628.407 415.604 628.107 415.442 627.85 415.225C627.593 415.008 627.382 414.74 627.233 414.439C627.083 414.137 626.997 413.808 626.98 413.472C626.927 412.51 626.859 411.353 626.799 410.105C626.543 405.422 626.25 399.439 626.25 397.402C626.25 393.9 634.148 392.269 634.148 392.269C637.729 391.171 644.68 396.53 644.68 396.53C644.68 396.53 651.578 406.55 652.33 408.053C652.623 408.632 652.684 410.12 652.653 411.721Z" fill="#575988"/>
<path d="M652.653 411.721C652.608 414.254 652.33 417.073 652.33 417.073C648.339 417.395 644.322 417.098 640.422 416.193C636.903 415.468 633.289 415.331 629.725 415.787C629.391 415.827 629.052 415.797 628.729 415.701C628.407 415.604 628.107 415.442 627.85 415.225C627.592 415.008 627.382 414.74 627.233 414.439C627.083 414.137 626.997 413.808 626.98 413.472C626.927 412.51 626.859 411.353 626.799 410.105C629.688 409.669 633.945 409.248 636.909 409.932C640.354 410.729 648.268 411.398 652.653 411.721Z" fill="#F1FAFF"/>
<path opacity="0.1" d="M481.385 336.46C481.385 336.46 478.752 340.97 481.385 343.037C484.018 345.104 481.385 336.46 481.385 336.46Z" fill="black"/>
<path opacity="0.1" d="M622.805 353.936C623.557 355.439 625.558 357.694 625.212 360.324C624.866 362.955 622.805 353.936 622.805 353.936Z" fill="black"/>
<path d="M620.488 79.0866C620.488 79.0866 609.001 77.9216 597.093 76.3432L596.604 76.2755C582.778 74.434 568.591 72.0514 571.337 70.3151C572.563 69.5635 573.594 67.6543 574.444 65.2491C574.973 63.7087 575.417 62.1404 575.775 60.5514C575.835 60.3034 575.888 60.0478 575.948 59.7998C576.467 57.4321 576.881 54.9593 577.204 52.7194C577.844 48.157 578.107 44.5191 578.107 44.5191C578.107 44.5191 607.572 33.3649 603.939 47.2701C603.388 49.5028 603.352 51.8313 603.833 54.0799C604.266 56.2396 604.972 58.3358 605.932 60.3184C610.626 70.3301 620.488 79.0866 620.488 79.0866Z" fill="#FFAAB0"/>
<path opacity="0.1" d="M603.939 47.2626C603.388 49.4952 603.352 51.8237 603.833 54.0723C600.01 57.1712 595.174 58.7467 590.258 58.4956C585.341 58.2444 580.691 56.1842 577.204 52.7119C577.844 48.1495 578.107 44.5116 578.107 44.5116C578.107 44.5116 607.572 33.3574 603.939 47.2626Z" fill="black"/>
<path d="M611.205 37.8521C611.211 43.1348 609.117 48.2034 605.383 51.9431C603.534 53.7947 601.338 55.2644 598.92 56.2681C596.503 57.2718 593.911 57.79 591.294 57.7929C588.676 57.7959 586.083 57.2836 583.664 56.2854C581.244 55.2871 579.045 53.8224 577.191 51.9749C573.449 48.2438 571.343 43.1799 571.337 37.8972V37.8521C571.337 32.5695 573.437 27.5032 577.176 23.7678C580.914 20.0324 585.984 17.9339 591.271 17.9339C596.558 17.9339 601.628 20.0324 605.367 23.7678C609.105 27.5032 611.205 32.5695 611.205 37.8521Z" fill="#FFAAB0"/>
<path opacity="0.1" d="M597.357 75.5239C597.3 75.806 597.212 76.0808 597.093 76.3432L596.604 76.2755C582.778 74.434 568.591 72.0514 571.337 70.3151C572.563 69.5635 573.594 67.6543 574.444 65.2491C574.973 63.7087 575.417 62.1404 575.775 60.5514C575.835 60.3034 575.888 60.0478 575.948 59.7998H576.527C576.572 60.1155 578.032 69.7439 590.963 71.3899L591.399 71.4425C596.447 72.0063 597.733 73.6599 597.357 75.5239Z" fill="black"/>
<path d="M596.604 76.2755C595.973 79.3948 590.647 83.0928 590.647 83.0928L575.85 80.3343C575.85 80.3343 566.575 72.0664 566.575 71.8183C566.575 71.5703 572.089 60.5439 572.089 60.5439H575.775C575.82 60.8596 577.279 70.488 590.21 72.134L590.647 72.1866C595.694 72.7579 596.981 74.4115 596.604 76.2755Z" fill="#F1FAFF"/>
<path opacity="0.1" d="M620.488 79.0866C620.488 79.0866 608.685 77.8915 596.604 76.2755C595.972 79.3948 590.647 83.0928 590.647 83.0928L575.85 80.3343C575.85 80.3343 566.575 72.0664 566.575 71.8184C566.575 71.5703 572.089 60.5439 572.089 60.5439H572.277C572.762 62.2107 573.493 63.7963 574.444 65.2491C576.768 68.7968 581.214 72.6827 589.488 72.1942L590.18 72.1415C602.6 71.1118 605.39 62.5207 605.902 60.3109C610.626 70.3301 620.488 79.0866 620.488 79.0866Z" fill="black"/>
<path opacity="0.1" d="M626.122 223.866L625.874 224.775C622.865 222.52 600.93 221.017 600.93 221.017C600.93 221.017 595.16 220.341 589.646 219.461C585.644 218.822 581.778 218.071 580.356 217.387C580.025 217.239 579.686 217.111 579.34 217.003C574.346 215.44 559.03 213.629 559.03 213.629C559.03 213.629 551.508 217.011 547.498 215.508C543.489 214.004 532.078 206.984 532.078 206.984C532.078 206.984 532.326 206.608 532.83 205.969L535.703 204.985L623.843 219.138C623.843 219.138 625.039 221.528 626.122 223.866Z" fill="black"/>
<path d="M627.536 184.255C629.214 194.221 631.403 208.796 630.267 210.908C628.507 214.162 625.874 224.061 625.874 224.061C622.865 221.806 600.93 220.303 600.93 220.303C600.93 220.303 595.16 219.627 589.646 218.747C585.644 218.108 581.778 217.357 580.356 216.673C580.025 216.525 579.686 216.397 579.341 216.289C574.346 214.726 559.03 212.915 559.03 212.915C559.03 212.915 551.508 216.297 547.499 214.794C543.489 213.29 532.078 206.27 532.078 206.27C533.721 204.02 535.613 201.962 537.72 200.137C541.601 196.627 548.747 166.434 548.567 166.058C548.386 165.682 546.618 156.039 547.122 150.401C547.626 144.764 545.618 117.202 545.618 117.202C545.618 117.202 525.451 109.4 525.097 97.3738C524.743 85.3477 536.757 78.335 536.757 78.335C536.757 78.335 550.673 67.4363 551.801 66.805C552.93 66.1736 560.452 64.5501 566.598 61.1677C572.744 57.7854 572.112 60.5439 572.112 60.5439C572.112 60.5439 574.624 73.8252 589.541 72.9458C604.458 72.0664 606.09 60.5439 606.09 60.5439C607.692 56.5377 620.54 68.436 620.54 68.436C620.54 68.436 623.798 75.2007 634.081 80.7101C641.603 84.7389 643.544 95.1114 644.055 100.41C644.243 102.372 644.236 103.635 644.236 103.635L614.019 125.312L625.896 174.792C625.896 174.792 626.649 178.828 627.536 184.255Z" fill="#575988"/>
<path d="M552.787 209.998C552.787 209.998 562.694 227.03 572.969 222.272C575.284 221.221 577.207 219.463 578.46 217.251C582.515 210.246 578.46 201.309 570.607 199.212C567.711 198.461 564.589 197.987 562.062 198.461C554.915 199.723 552.787 209.998 552.787 209.998Z" fill="#FFAAB0"/>
<path opacity="0.1" d="M552.787 209.998C552.787 209.998 562.694 227.03 572.969 222.272C575.284 221.221 577.207 219.463 578.46 217.251C582.515 210.246 578.46 201.309 570.607 199.212C567.711 198.461 564.589 197.987 562.062 198.461C554.915 199.723 552.787 209.998 552.787 209.998Z" fill="black"/>
<path opacity="0.1" d="M538.246 85.6033C538.246 85.6033 546.062 90.8647 546.227 99.1326L538.246 85.6033Z" fill="black"/>
<path opacity="0.1" d="M550.53 89.6095C550.53 90.1131 548.273 124.936 552.283 136.834C556.292 148.733 550.53 89.6095 550.53 89.6095Z" fill="black"/>
<path opacity="0.1" d="M611.205 37.8521C611.214 41.7121 610.092 45.4902 607.978 48.7207C607.978 48.4652 607.978 48.2171 607.978 47.9691C607.85 45.8796 606.744 43.993 605.669 42.189C604.937 40.7547 603.912 39.4897 602.66 38.476C602.294 38.2638 601.954 38.0117 601.644 37.7244C600.952 36.9727 601.027 35.7776 600.892 34.7178C600.692 33.3319 600.063 32.0432 599.093 31.0324C598.123 30.0215 596.861 29.3391 595.483 29.0806C594.912 28.9379 594.307 29.0243 593.798 29.3211C593.287 29.6819 593.046 30.3509 592.617 30.7643C591.94 31.3731 590.902 31.2979 590.007 31.125C588.036 30.7342 585.983 30.0201 584.072 30.6515C580.792 31.7414 579.559 36.2737 576.196 37.1155C575.2 37.2641 574.194 37.3345 573.187 37.326C572.54 37.3683 571.911 37.5614 571.352 37.8897V37.8446C571.352 32.562 573.452 27.4957 577.19 23.7603C580.929 20.0249 585.999 17.9264 591.286 17.9264C596.573 17.9264 601.643 20.0249 605.382 23.7603C609.12 27.4957 611.22 32.562 611.22 37.8446L611.205 37.8521Z" fill="black"/>
<path d="M571.532 24.6309C572.157 23.7966 573.157 23.293 573.722 22.4136C574.579 21.0682 574.158 19.2944 574.579 17.7535C575.091 15.8669 576.776 14.5741 578.34 13.4241C580.597 11.8006 583.042 10.1094 585.787 10.2973C587.668 10.4326 589.376 11.4549 591.241 11.7555C594.152 12.229 597.071 10.9212 600.02 11.0039C601.494 11.0778 602.928 11.5041 604.203 12.247C605.478 12.9899 606.556 14.0277 607.346 15.2731C608.512 17.1372 609.129 19.565 611.108 20.5346C611.86 20.9179 612.702 21.0382 613.44 21.4215C614.122 21.837 614.696 22.4089 615.113 23.0898C615.53 23.7708 615.779 24.5413 615.839 25.3375C615.943 26.9261 615.832 28.5214 615.508 30.0803C615.361 30.8655 615.325 31.6677 615.403 32.4629C615.538 33.4476 616.005 34.3646 616.102 35.3567C616.328 37.6116 614.598 39.5884 613.342 41.5201C612.227 43.253 611.434 45.173 611.002 47.1874C610.879 48.1351 610.611 49.058 610.205 49.9233C609.995 50.3527 609.66 50.7083 609.244 50.9431C608.827 51.178 608.349 51.281 607.873 51.2387C607.73 49.8782 608.069 48.5028 607.978 47.1348C607.85 45.0453 606.745 43.1587 605.669 41.3623C604.939 39.9244 603.914 38.6566 602.66 37.6417C602.295 37.4318 601.957 37.1795 601.652 36.8901C600.952 36.1384 601.028 34.9508 600.9 33.8835C600.698 32.4989 600.068 31.212 599.098 30.2026C598.129 29.1932 596.868 28.5118 595.491 28.2538C594.921 28.1089 594.316 28.1925 593.806 28.4868C593.295 28.8476 593.054 29.5166 592.625 29.93C591.948 30.5388 590.91 30.4711 590.015 30.2907C588.044 29.9074 585.99 29.1858 584.08 29.8172C580.8 30.9071 579.566 35.4394 576.204 36.2812C575.208 36.4339 574.202 36.5043 573.195 36.4917C572.687 36.4929 572.188 36.6157 571.737 36.8498C571.287 37.0839 570.9 37.4225 570.607 37.8371C569.599 36.7848 569.802 35.0711 570.299 33.7031C570.878 32.1022 571.405 30.9672 571.119 29.2835C570.833 27.5999 570.457 26.0666 571.532 24.6309Z" fill="#794F6A"/>
<path opacity="0.1" d="M498.31 297.939C498.31 297.939 491.164 301.697 494.925 302.449C498.686 303.2 498.31 297.939 498.31 297.939Z" fill="black"/>
<path opacity="0.1" d="M616.035 306.959C616.035 306.959 619.984 301.697 624.309 304.892C628.635 308.086 616.035 306.959 616.035 306.959Z" fill="black"/>
<path opacity="0.1" d="M625.212 310.341C625.212 310.341 630.139 308.65 633.148 310.341H625.212Z" fill="black"/>
<path opacity="0.1" d="M527.835 225.031C527.835 225.031 538.366 235.178 541.752 235.554C545.137 235.929 527.835 225.031 527.835 225.031Z" fill="black"/>
<path opacity="0.1" d="M529.34 91.6163L526.601 97.3738L525.217 110.903L524.217 136.083C524.217 136.083 522.336 157.504 524.217 160.511C526.098 163.517 529.355 181.308 528.73 183.563C528.106 185.818 537.005 206.864 538.637 208.119C540.27 209.374 546.032 209.622 549.289 208.991L555.247 214.651L572.112 199.1L561.701 191.207C561.701 191.207 564.085 187.194 557.443 182.812C557.443 182.812 554.434 177.798 554.306 175.168C554.15 169.801 553.22 164.485 551.546 159.383C549.168 152.371 547.784 113.414 547.784 113.414C547.784 113.414 542.128 84.9719 529.34 91.6163Z" fill="black"/>
<path d="M527.835 91.6163L525.097 97.3738L523.713 110.903L522.712 136.083C522.712 136.083 520.832 157.504 522.712 160.511C524.593 163.517 527.85 181.308 527.226 183.563C526.601 185.818 535.5 206.864 537.133 208.119C538.765 209.374 544.527 209.622 547.784 208.991L553.742 214.651L570.607 199.1L560.196 191.207C560.196 191.207 562.581 187.194 555.938 182.812C555.938 182.812 552.93 177.798 552.802 175.168C552.645 169.801 551.716 164.485 550.041 159.383C547.664 152.371 546.28 113.414 546.28 113.414C546.28 113.414 540.623 84.9719 527.835 91.6163Z" fill="#575988"/>
<path opacity="0.1" d="M554.043 185.818C553.291 186.194 538.118 200.227 543.76 200.603C549.402 200.979 554.043 185.818 554.043 185.818Z" fill="black"/>
<path d="M573.345 202.73C573.345 202.73 551.658 204.985 552.787 213.756C553.915 222.528 569.336 230.976 574.225 228.315C579.115 225.655 583.252 223.114 583.252 223.114L573.345 202.73Z" fill="#FFAAB0"/>
<path opacity="0.1" d="M639.542 97.6294L642.679 103.642C642.679 103.642 645.936 129.318 642.679 139.217C639.421 149.116 631.523 171.913 631.523 171.913C631.523 171.913 621.992 188.577 621.744 189.328C621.496 190.08 603.435 216.132 600.177 217.515C596.92 218.898 590.775 218.168 590.398 216.65C590.022 215.132 581.748 223.114 581.748 223.114C581.748 223.114 565.8 203.857 568.335 201.851C570.87 199.844 578.551 199.348 578.551 199.348C578.551 199.348 579.115 201.227 579.739 197.341C580.364 193.455 583.252 191.455 585.381 191.704C587.51 191.952 586.637 189.704 587.013 187.322C587.389 184.939 593.279 180.685 593.279 180.685C593.279 180.685 596.168 176.047 596.168 173.289C596.168 170.53 602.186 168.155 602.682 168.155C603.179 168.155 603.059 167.027 603.059 163.021C603.059 159.015 606.067 151.867 606.067 151.867L607.925 129.318L611.19 106.393C611.19 106.393 620.112 78.4628 639.542 97.6294Z" fill="black"/>
<path opacity="0.1" d="M625.896 174.792C625.896 174.792 626.648 178.828 627.559 184.217C626.054 186.916 624.858 189.065 624.768 189.321C624.52 190.072 606.466 216.132 603.209 217.507C599.952 218.882 593.806 218.161 593.43 216.65C593.264 215.974 591.542 217.169 589.669 218.71C587.337 220.634 584.772 223.107 584.772 223.107C584.772 223.107 582.244 220.055 579.363 216.252C575 210.509 569.832 203.061 571.352 201.851C573.887 199.844 581.575 199.348 581.575 199.348C581.575 199.348 582.139 201.227 582.763 197.341C583.387 193.455 586.276 191.455 588.405 191.704C590.534 191.952 589.661 189.697 590.037 187.321C590.413 184.946 596.303 180.677 596.303 180.677C596.303 180.677 599.184 176.047 599.184 173.289C599.184 170.53 605.202 168.155 605.706 168.155C606.21 168.155 606.082 167.027 606.082 163.014C606.082 159 609.091 151.867 609.091 151.867L610.949 129.318L614.207 106.393C614.207 106.393 623.113 78.4552 642.543 97.6218L643.995 100.41C644.183 102.372 644.175 103.635 644.175 103.635L613.958 125.312L625.896 174.792Z" fill="black"/>
<path d="M641.047 97.6294L644.183 103.642C644.183 103.642 647.441 129.318 644.183 139.217C640.926 149.116 633.028 171.913 633.028 171.913C633.028 171.913 623.497 188.577 623.249 189.328C623 190.08 604.939 216.132 601.682 217.515C598.425 218.898 592.279 218.168 591.903 216.65C591.527 215.132 583.252 223.114 583.252 223.114C583.252 223.114 567.305 203.857 569.84 201.851C572.375 199.844 580.055 199.348 580.055 199.348C580.055 199.348 580.62 201.227 581.244 197.341C581.868 193.455 584.757 191.455 586.886 191.704C589.014 191.952 588.142 189.704 588.518 187.322C588.894 184.939 594.784 180.685 594.784 180.685C594.784 180.685 597.673 176.047 597.673 173.289C597.673 170.53 603.691 168.155 604.187 168.155C604.684 168.155 604.563 167.027 604.563 163.021C604.563 159.015 607.572 151.867 607.572 151.867L609.43 129.318L612.695 106.393C612.695 106.393 621.616 78.4628 641.047 97.6294Z" fill="#575988"/>
<path opacity="0.1" d="M585.133 198.295C585.133 198.295 585.885 199.986 589.27 200.603C592.655 201.219 585.133 198.295 585.133 198.295Z" fill="black"/>
<path opacity="0.1" d="M625.625 97.7496C625.505 98.1254 614.342 110.73 616.599 114.015C618.855 117.3 625.625 97.7496 625.625 97.7496Z" fill="black"/>
<path opacity="0.1" d="M612.965 155.625C612.965 155.625 619.359 161.894 618.103 164.9C616.847 167.907 612.965 155.625 612.965 155.625Z" fill="black"/>
<path opacity="0.1" d="M613.966 143.727C614.342 144.351 628.138 145.982 628.89 151.243C629.642 156.505 613.966 143.727 613.966 143.727Z" fill="black"/>
<g opacity="0.1">
<path opacity="0.1" d="M615.365 31.0574C615.365 30.7718 615.433 30.4786 615.478 30.1855C615.759 28.7526 615.88 27.2931 615.839 25.8336C615.779 26.7881 615.613 27.7427 615.478 28.6822C615.328 29.4647 615.29 30.2643 615.365 31.0574Z" fill="black"/>
<path opacity="0.1" d="M571.126 29.5842C571.216 29.0291 571.216 28.4632 571.126 27.9081C571.036 27.3744 570.938 26.8407 570.885 26.3071C570.805 27.348 570.886 28.3951 571.126 29.4113V29.5842Z" fill="black"/>
<path opacity="0.1" d="M616.035 35.1538C615.711 36.9427 614.365 38.5436 613.334 40.1296C612.215 41.8575 611.422 43.7758 610.995 45.7894C610.866 46.7357 610.597 47.6578 610.197 48.5253C609.989 48.956 609.654 49.3128 609.238 49.5479C608.821 49.783 608.342 49.8852 607.866 49.8407C607.869 49.8157 607.869 49.7904 607.866 49.7655C607.824 50.2908 607.824 50.8186 607.866 51.3439C608.342 51.3884 608.821 51.2863 609.238 51.0512C609.654 50.8161 609.989 50.4593 610.197 50.0286C610.597 49.161 610.866 48.239 610.995 47.2926C611.422 45.2791 612.215 43.3608 613.334 41.6328C614.583 39.7012 616.343 37.7544 616.087 35.462C616.117 35.3567 616.05 35.259 616.035 35.1538Z" fill="black"/>
<path opacity="0.1" d="M607.971 45.7443C607.843 43.6547 606.737 41.7606 605.661 39.9642C604.934 38.5141 603.909 37.2335 602.652 36.2061C602.287 35.9941 601.946 35.742 601.637 35.4544C600.945 34.7028 601.02 33.5077 600.885 32.4479C600.683 31.0633 600.053 29.7764 599.083 28.767C598.114 27.7576 596.852 27.0762 595.476 26.8182C594.905 26.6733 594.301 26.7569 593.791 27.0512C593.28 27.412 593.039 28.0809 592.61 28.5019C592.229 28.7529 591.798 28.9156 591.346 28.978C590.894 29.0404 590.434 29.001 590 28.8626C588.029 28.4718 585.975 27.7502 584.065 28.3891C580.785 29.4715 579.551 34.0038 576.181 34.8456C575.186 34.9974 574.179 35.0703 573.172 35.0636C572.666 35.0614 572.167 35.182 571.717 35.415C571.268 35.6481 570.882 35.9866 570.592 36.4015C570.249 36.037 570.021 35.5794 569.938 35.0861C569.82 35.5745 569.818 36.0835 569.932 36.5727C570.045 37.062 570.271 37.5181 570.592 37.9048C570.882 37.4898 571.268 37.1513 571.717 36.9183C572.167 36.6853 572.666 36.5647 573.172 36.5669C574.179 36.5735 575.186 36.5006 576.181 36.3489C579.536 35.5071 580.785 30.9747 584.065 29.8924C585.975 29.2535 588.029 29.9751 590 30.3659C590.434 30.5043 590.894 30.5437 591.346 30.4813C591.798 30.4188 592.229 30.2561 592.61 30.0051C593.076 29.5842 593.28 28.9152 593.791 28.5545C594.301 28.2602 594.905 28.1765 595.476 28.3215C596.852 28.5795 598.114 29.2608 599.083 30.2702C600.053 31.2796 600.683 32.5666 600.885 33.9512C601.012 34.9884 600.937 36.1535 601.637 36.9577C601.946 37.2453 602.287 37.4974 602.652 37.7093C603.909 38.7368 604.934 40.0173 605.661 41.4675C606.707 43.2188 607.768 45.0528 607.918 47.0747C607.966 46.6329 607.983 46.1884 607.971 45.7443Z" fill="black"/>
</g>
<path d="M360.734 110.362V189.238C360.732 189.404 360.763 189.569 360.826 189.723C360.889 189.876 360.982 190.016 361.1 190.133C361.218 190.25 361.358 190.342 361.512 190.404C361.666 190.466 361.831 190.496 361.998 190.493C383.737 189.817 401.866 171.86 401.866 149.8C401.866 127.74 383.752 109.776 361.998 109.107C361.831 109.103 361.666 109.132 361.511 109.194C361.356 109.255 361.216 109.348 361.098 109.465C360.98 109.582 360.886 109.722 360.824 109.876C360.761 110.03 360.731 110.196 360.734 110.362Z" fill="#61BEEC"/>
<path d="M306.445 218.078V152.799C306.368 142.359 309.715 132.182 315.976 123.824C321.896 116.052 331.111 109.017 345.042 109.107C345.23 109.106 345.416 109.142 345.59 109.213C345.764 109.283 345.922 109.388 346.055 109.52C346.189 109.652 346.295 109.809 346.367 109.981C346.44 110.154 346.478 110.34 346.479 110.527V177.723C346.479 177.723 348.736 214.448 307.243 218.792C307.143 218.798 307.043 218.785 306.949 218.752C306.855 218.719 306.769 218.668 306.694 218.602C306.62 218.535 306.56 218.455 306.517 218.365C306.474 218.275 306.45 218.178 306.445 218.078Z" fill="#4064AC"/>
<path opacity="0.1" d="M135.395 101.741C148.481 101.741 159.09 91.1405 159.09 78.0644C159.09 64.9883 148.481 54.388 135.395 54.388C122.308 54.388 111.699 64.9883 111.699 78.0644C111.699 91.1405 122.308 101.741 135.395 101.741Z" fill="#6C63FF"/>
<path opacity="0.1" d="M85.7472 36.3489C93.8484 36.3489 100.416 29.7868 100.416 21.6921C100.416 13.5973 93.8484 7.03526 85.7472 7.03526C77.646 7.03526 71.0786 13.5973 71.0786 21.6921C71.0786 29.7868 77.646 36.3489 85.7472 36.3489Z" fill="#6C63FF"/>
<path opacity="0.1" d="M9.02681 63.4076C14.0122 63.4076 18.0536 59.3694 18.0536 54.388C18.0536 49.4067 14.0122 45.3685 9.02681 45.3685C4.04144 45.3685 0 49.4067 0 54.388C0 59.3694 4.04144 63.4076 9.02681 63.4076Z" fill="#6C63FF"/>
<path d="M308.318 505.043C307.597 506.032 307.019 507.117 306.603 508.268C306.498 508.546 306.393 508.869 306.287 509.177C306.097 509.088 305.898 509.02 305.693 508.975C304.816 508.751 303.909 508.673 303.007 508.742C303.007 508.396 303.053 507.99 303.06 507.644C303.173 503.683 302.707 498.159 298.923 500.496C295.297 502.751 297.885 506.509 300.224 508.922L300.826 509.508C298.69 511.011 298.283 514.567 297.93 518.257C297.576 521.948 294.44 525.991 292.356 528.284C292.145 528.517 291.957 528.727 291.769 528.923C290.928 528.249 289.953 527.762 288.909 527.494C287.865 527.225 286.776 527.182 285.714 527.367C285.631 527.044 285.541 526.706 285.435 526.345C283.758 520.234 280.26 509.711 275.792 507.456L276.378 506.705C278.274 504.224 280.41 500.541 277.259 499.602C274.107 498.662 273.821 502.796 273.994 505.893C273.994 506.276 274.054 506.644 274.084 506.99C273.454 507.019 272.837 507.177 272.27 507.454C271.703 507.73 271.2 508.12 270.789 508.599L270.3 508.027C267.743 505.021 263.056 500.233 261.635 503.848C260.318 507.216 264.44 511.583 267.344 514.116L267.525 514.274C265.576 522.181 274.084 528.622 278.665 531.441L279.259 531.802C272.941 539.243 269.037 553.185 269.037 553.185L286.737 556.342C286.737 556.342 298.464 546.225 296.96 536.732H297.08C308.807 534.387 311.47 521.895 309.65 514.476C309.717 514.476 309.785 514.424 309.853 514.386C311.988 513.514 313.859 512.102 315.284 510.29C318.564 505.712 311.688 500.571 308.318 505.043Z" fill="#6C63FF"/>
<path opacity="0.1" d="M308.318 505.043C307.597 506.032 307.019 507.117 306.603 508.268C306.498 508.546 306.393 508.869 306.287 509.177C306.097 509.088 305.898 509.02 305.693 508.975C304.816 508.751 303.909 508.673 303.007 508.742C303.007 508.396 303.053 507.99 303.06 507.644C303.173 503.683 302.707 498.159 298.923 500.496C295.297 502.751 297.885 506.509 300.224 508.922L300.826 509.508C298.69 511.011 298.283 514.567 297.93 518.257C297.576 521.948 294.44 525.991 292.356 528.284C292.145 528.517 291.957 528.727 291.769 528.923C290.928 528.249 289.953 527.762 288.909 527.494C287.865 527.225 286.776 527.182 285.714 527.367C285.631 527.044 285.541 526.706 285.435 526.345C283.758 520.234 280.26 509.711 275.792 507.456L276.378 506.705C278.274 504.224 280.41 500.541 277.259 499.602C274.107 498.662 273.821 502.796 273.994 505.893C273.994 506.276 274.054 506.644 274.084 506.99C273.454 507.019 272.837 507.177 272.27 507.454C271.703 507.73 271.2 508.12 270.789 508.599L270.3 508.027C267.743 505.021 263.056 500.233 261.635 503.848C260.318 507.216 264.44 511.583 267.344 514.116L267.525 514.274C265.576 522.181 274.084 528.622 278.665 531.441L279.259 531.802C272.941 539.243 269.037 553.185 269.037 553.185L286.737 556.342C286.737 556.342 298.464 546.225 296.96 536.732H297.08C308.807 534.387 311.47 521.895 309.65 514.476C309.717 514.476 309.785 514.424 309.853 514.386C311.988 513.514 313.859 512.102 315.284 510.29C318.564 505.712 311.688 500.571 308.318 505.043Z" fill="black"/>
<path d="M273.098 510.14L271.03 516.153C271.03 516.153 269.879 515.341 268.427 514.063C265.523 511.53 261.401 507.163 262.718 503.796C264.139 500.18 268.826 504.953 271.383 507.975C272.414 509.208 273.098 510.14 273.098 510.14Z" fill="#6C63FF"/>
<path d="M277.462 506.705C276.832 507.529 276.159 508.319 275.446 509.072C275.269 508.019 275.146 506.958 275.077 505.893C274.904 502.796 275.235 498.685 278.342 499.602C281.448 500.519 279.357 504.209 277.462 506.705Z" fill="#6C63FF"/>
<path d="M304.143 507.644C304.083 509.636 303.888 511.222 303.888 511.222C302.978 510.526 302.116 509.771 301.307 508.96C298.968 506.532 296.38 502.789 300.006 500.534C303.79 498.159 304.256 503.698 304.143 507.644Z" fill="#6C63FF"/>
<path d="M316.367 510.252C314.942 512.065 313.071 513.476 310.936 514.349C310.344 514.609 309.736 514.83 309.115 515.01L306.678 511.59C306.936 510.461 307.273 509.351 307.686 508.268C308.102 507.117 308.68 506.032 309.401 505.043C312.771 500.571 319.647 505.712 316.367 510.252Z" fill="#6C63FF"/>
<path opacity="0.1" d="M271.384 508.012C272.414 509.208 273.099 510.14 273.099 510.14L271.03 516.153C271.03 516.153 269.879 515.341 268.427 514.063C268.751 512.126 269.553 510.3 270.759 508.749C270.962 508.509 271.18 508.245 271.384 508.012Z" fill="black"/>
<path opacity="0.1" d="M277.461 506.705C276.832 507.529 276.159 508.319 275.445 509.072C275.269 508.019 275.146 506.958 275.077 505.893C275.937 505.907 276.771 506.191 277.461 506.705Z" fill="black"/>
<path d="M287.639 530.704L282.486 532.959C282.486 532.959 281.366 532.418 279.748 531.418C274.34 528.088 263.47 519.723 270.759 509.861C278.048 500 284.126 517.686 286.518 526.337C287.248 528.93 287.639 530.704 287.639 530.704Z" fill="#6C63FF"/>
<path opacity="0.1" d="M301.307 508.959C302.054 508.187 303.069 507.73 304.143 507.682C304.083 509.674 303.888 511.259 303.888 511.259C302.977 510.552 302.115 509.783 301.307 508.959Z" fill="black"/>
<path opacity="0.1" d="M310.936 514.349C310.344 514.609 309.736 514.83 309.115 515.01L306.678 511.59C306.936 510.461 307.273 509.351 307.686 508.268C309.258 509.193 310.417 511.47 310.936 514.349Z" fill="black"/>
<path d="M298.163 536.695L297.298 536.845C280.049 539.468 291.611 530.163 291.611 530.163C291.611 530.163 292.363 529.411 293.439 528.284C295.523 525.991 298.652 521.97 299.013 518.257C299.555 512.672 300.179 507.434 306.776 508.974C313.253 510.463 314.471 533.425 298.163 536.695Z" fill="#6C63FF"/>
<path d="M297.847 579.605H264.892V588.264H297.847V579.605Z" fill="#D4DFEC"/>
<path d="M302.714 551.464H259.656V581.68H302.714V551.464Z" fill="#D4DFEC"/>
<path opacity="0.1" d="M297.847 579.605H264.892V588.264H297.847V579.605Z" fill="black"/>
<path opacity="0.1" d="M302.714 551.464H259.656V581.68H302.714V551.464Z" fill="black"/>
<path d="M300.013 579.605H267.058V588.264H300.013V579.605Z" fill="#D4DFEC"/>
<path opacity="0.1" d="M286.518 526.345C287.271 528.93 287.639 530.704 287.639 530.704L282.486 532.959C282.486 532.959 281.366 532.418 279.748 531.418C281.764 528.87 284.036 526.939 286.518 526.345Z" fill="black"/>
<path opacity="0.1" d="M298.163 536.695L297.298 536.845C280.049 539.468 291.611 530.163 291.611 530.163C291.611 530.163 292.363 529.411 293.439 528.284C296.659 530.862 297.99 533.763 298.163 536.695Z" fill="black"/>
<path d="M270.09 553.17C270.09 553.17 279.748 518.595 293.296 529.269C306.844 539.942 287.79 556.327 287.79 556.327L270.09 553.17Z" fill="#6C63FF"/>
<path opacity="0.1" d="M275.002 516.371C275.6 516.371 276.085 515.886 276.085 515.288C276.085 514.69 275.6 514.206 275.002 514.206C274.403 514.206 273.918 514.69 273.918 515.288C273.918 515.886 274.403 516.371 275.002 516.371Z" fill="black"/>
<path opacity="0.1" d="M274.911 521.422C275.51 521.422 275.995 520.937 275.995 520.339C275.995 519.741 275.51 519.257 274.911 519.257C274.313 519.257 273.828 519.741 273.828 520.339C273.828 520.937 274.313 521.422 274.911 521.422Z" fill="black"/>
<path opacity="0.1" d="M306.325 517.363C306.923 517.363 307.408 516.878 307.408 516.28C307.408 515.683 306.923 515.198 306.325 515.198C305.726 515.198 305.241 515.683 305.241 516.28C305.241 516.878 305.726 517.363 306.325 517.363Z" fill="black"/>
<path opacity="0.1" d="M281.05 543.256C281.648 543.256 282.133 542.772 282.133 542.174C282.133 541.576 281.648 541.092 281.05 541.092C280.452 541.092 279.967 541.576 279.967 542.174C279.967 542.772 280.452 543.256 281.05 543.256Z" fill="black"/>
<path opacity="0.1" d="M304.068 525.751C304.666 525.751 305.151 525.266 305.151 524.669C305.151 524.071 304.666 523.586 304.068 523.586C303.47 523.586 302.985 524.071 302.985 524.669C302.985 525.266 303.47 525.751 304.068 525.751Z" fill="black"/>
<path opacity="0.1" d="M292.875 536.943C293.473 536.943 293.958 536.458 293.958 535.86C293.958 535.263 293.473 534.778 292.875 534.778C292.276 534.778 291.792 535.263 291.792 535.86C291.792 536.458 292.276 536.943 292.875 536.943Z" fill="black"/>
<path opacity="0.1" d="M278.703 518.535C279.301 518.535 279.786 518.051 279.786 517.453C279.786 516.855 279.301 516.371 278.703 516.371C278.104 516.371 277.619 516.855 277.619 517.453C277.619 518.051 278.104 518.535 278.703 518.535Z" fill="black"/>
<path opacity="0.1" d="M303.346 520.61C303.944 520.61 304.429 520.125 304.429 519.527C304.429 518.93 303.944 518.445 303.346 518.445C302.748 518.445 302.263 518.93 302.263 519.527C302.263 520.125 302.748 520.61 303.346 520.61Z" fill="black"/>
<path opacity="0.1" d="M299.645 528.998C300.243 528.998 300.728 528.513 300.728 527.916C300.728 527.318 300.243 526.833 299.645 526.833C299.047 526.833 298.562 527.318 298.562 527.916C298.562 528.513 299.047 528.998 299.645 528.998Z" fill="black"/>
<path opacity="0.1" d="M288.271 542.445C288.869 542.445 289.354 541.96 289.354 541.362C289.354 540.765 288.869 540.28 288.271 540.28C287.673 540.28 287.188 540.765 287.188 541.362C287.188 541.96 287.673 542.445 288.271 542.445Z" fill="black"/>
<path opacity="0.1" d="M285.924 537.123C286.523 537.123 287.007 536.639 287.007 536.041C287.007 535.443 286.523 534.958 285.924 534.958C285.326 534.958 284.841 535.443 284.841 536.041C284.841 536.639 285.326 537.123 285.924 537.123Z" fill="black"/>
<path opacity="0.1" d="M280.328 525.12C280.926 525.12 281.411 524.635 281.411 524.037C281.411 523.439 280.926 522.955 280.328 522.955C279.729 522.955 279.244 523.439 279.244 524.037C279.244 524.635 279.729 525.12 280.328 525.12Z" fill="black"/>
<path opacity="0.1" d="M300.013 579.605H267.058V582.77H300.013V579.605Z" fill="black"/>
<path d="M304.88 551.464H261.823V581.68H304.88V551.464Z" fill="#D4DFEC"/>
<path opacity="0.1" d="M289.716 547.315C290.314 547.315 290.799 546.831 290.799 546.233C290.799 545.635 290.314 545.151 289.716 545.151C289.117 545.151 288.632 545.635 288.632 546.233C288.632 546.831 289.117 547.315 289.716 547.315Z" fill="black"/>
<path opacity="0.1" d="M283.216 548.668C283.814 548.668 284.299 548.184 284.299 547.586C284.299 546.988 283.814 546.503 283.216 546.503C282.618 546.503 282.133 546.988 282.133 547.586C282.133 548.184 282.618 548.668 283.216 548.668Z" fill="black"/>
</g>
<defs>
<linearGradient id="paint0_linear" x1="176.512" y1="581.59" x2="176.512" y2="180.775" gradientUnits="userSpaceOnUse">
<stop stop-color="#808080" stop-opacity="0.25"/>
<stop offset="0.54" stop-color="#808080" stop-opacity="0.12"/>
<stop offset="1" stop-color="#808080" stop-opacity="0.1"/>
</linearGradient>
<linearGradient id="paint1_linear" x1="178460" y1="249768" x2="178460" y2="27857.6" gradientUnits="userSpaceOnUse">
<stop stop-color="#808080" stop-opacity="0.25"/>
<stop offset="0.54" stop-color="#808080" stop-opacity="0.12"/>
<stop offset="1" stop-color="#808080" stop-opacity="0.1"/>
</linearGradient>
<clipPath id="clip0">
<rect width="814" height="591" fill="white"/>
</clipPath>
</defs>
</svg>
